<svg width="73" height="30" viewBox="0 0 73 30" fill="none" xmlns="http://www.w3.org/2000/svg">
<g clip-path="url(#clip0_2203_3632)">
<path d="M5.74594 0.418213H0V6.01582H5.74594V0.418213Z" fill="#B4B6C4"/>
<path d="M5.60288 29.5817V9.42231H0.163666V29.5817H5.60288ZM41.7553 29.7809V24.8406C40.9578 24.8406 40.283 24.8008 39.7922 24.7211C39.2197 24.6414 38.7903 24.4422 38.504 24.1633C38.2177 23.8845 38.0337 23.4861 37.9314 22.9681C37.8497 22.4701 37.8088 21.8127 37.8088 21.0159V13.9641H41.7553V9.42231H37.8088V1.55378H32.3491V21.0558C32.3491 22.7092 32.4922 24.1036 32.7785 25.2191C33.0648 26.3147 33.5555 27.2111 34.2303 27.8884C34.9051 28.5657 35.8048 29.0438 36.8886 29.3426C37.9928 29.6414 39.3833 29.7809 41.0396 29.7809H41.7553ZM73.0001 29.5817V0H67.5404V29.5817H73.0001ZM27.0939 11.3944C25.5807 9.80079 23.4541 9.00398 20.755 9.00398C19.4463 9.00398 18.2603 9.26295 17.1765 9.78088C16.1132 10.2988 15.1931 11.0159 14.4774 11.9323L14.1707 12.3108V11.9721V9.42231H8.7928V29.5817H14.2116V18.8446V19.5817C14.2116 19.4621 14.2116 19.3426 14.2116 19.2231C14.2729 17.3307 14.7432 15.9363 15.6429 15.0398C16.604 14.0837 17.7695 13.6056 19.0987 13.6056C20.6732 13.6056 21.8796 14.0837 22.6771 15C23.4541 15.9163 23.8631 17.2112 23.8631 18.8645V18.9044V29.5617H29.3637V18.1275C29.3841 15.259 28.6071 12.988 27.0939 11.3944ZM64.7186 19.4621C64.7186 18.008 64.4527 16.6534 63.9415 15.3785C63.4099 14.1235 62.6737 13.008 61.7536 12.0518C60.813 11.0956 59.6883 10.3586 58.3796 9.82072C57.0709 9.28287 55.6191 9.0239 54.0446 9.0239C52.5519 9.0239 51.141 9.30279 49.8323 9.84064C48.5236 10.3984 47.3785 11.1355 46.4174 12.0717C45.4564 13.008 44.6793 14.1235 44.1272 15.3984C43.5547 16.6733 43.2889 18.0478 43.2889 19.502C43.2889 20.9562 43.5547 22.3307 44.0863 23.6056C44.618 24.8805 45.3746 25.996 46.3152 26.9323C47.2558 27.8685 48.4214 28.6255 49.7709 29.1633C51.1205 29.7211 52.6132 30 54.2082 30C58.8295 30 61.6922 27.9482 63.4099 26.0359L59.4838 23.1275C58.6659 24.0837 56.7029 25.3785 54.2491 25.3785C52.7155 25.3785 51.4477 25.0398 50.4866 24.3426C49.5256 23.6653 48.8712 22.7092 48.5236 21.5339L48.4623 21.3546H64.7186V19.4621ZM48.5032 17.6096C48.5032 16.1355 50.2412 13.5657 53.9833 13.5458C57.7253 13.5458 59.4838 16.1155 59.4838 17.5896L48.5032 17.6096Z" fill="#B4B6C4"/>
</g>
<defs>
<clipPath id="clip0_2203_3632">
<rect width="73" height="30" fill="white"/>
</clipPath>
</defs>
</svg>
