<svg width="140" height="30" viewBox="0 0 140 30" fill="none" xmlns="http://www.w3.org/2000/svg">
<g clip-path="url(#clip0_2203_3753)">
<path d="M49.4172 17.279L48.5828 19.6511H48.5132C48.3741 19.1162 48.1192 18.3022 47.702 17.3255L43.2285 6.04641H38.8477V24.0232H41.745V12.9301C41.745 12.2325 41.745 11.4418 41.7218 10.465C41.6986 9.97664 41.6523 9.60455 41.6291 9.32548H41.6986C41.8377 10.0232 42 10.5348 42.1159 10.8604L47.4934 23.9766H49.5331L54.8642 10.7441C54.9801 10.4418 55.096 9.83711 55.2119 9.32548H55.2814C55.2119 10.6511 55.1655 11.8371 55.1424 12.558V23.9534H58.2251V5.9999H54.0066L49.4172 17.279V17.279ZM61.1457 11.0697H64.1589V23.9534H61.1457V11.0697ZM62.6755 5.6278C62.1655 5.6278 61.7483 5.81385 61.4006 6.13943C61.053 6.46501 60.8675 6.88362 60.8675 7.39525C60.8675 7.88362 61.053 8.30222 61.4006 8.6278C61.7483 8.95339 62.1655 9.11618 62.6755 9.11618C63.1854 9.11618 63.6258 8.93013 63.9503 8.6278C64.298 8.30222 64.4834 7.88362 64.4834 7.39525C64.4834 6.90687 64.298 6.48827 63.9503 6.13943C63.649 5.81385 63.2086 5.6278 62.6755 5.6278V5.6278ZM74.8443 10.9534C74.2881 10.8371 73.7086 10.7673 73.1523 10.7673C71.7847 10.7673 70.5331 11.0697 69.49 11.6743C68.447 12.279 67.6126 13.1162 67.0794 14.1627C66.5232 15.2325 66.245 16.465 66.245 17.8836C66.245 19.1162 66.5232 20.2092 67.0563 21.2092C67.5894 22.1859 68.3311 22.9766 69.3278 23.5115C70.2781 24.0464 71.3907 24.3255 72.6424 24.3255C74.0794 24.3255 75.3079 24.0232 76.2814 23.465L76.3046 23.4418V20.6511L76.1887 20.7441C75.7483 21.0697 75.2384 21.3487 74.7285 21.5115C74.1953 21.6976 73.7086 21.7906 73.2914 21.7906C72.0861 21.7906 71.1357 21.4418 70.4636 20.6743C69.7682 19.9301 69.4205 18.9069 69.4205 17.6278C69.4205 16.3022 69.7682 15.2557 70.4867 14.4883C71.2053 13.7208 72.1556 13.3255 73.3145 13.3255C74.2881 13.3255 75.2848 13.6511 76.1887 14.3022L76.3046 14.3952V11.4418L76.2814 11.4185C75.8874 11.2557 75.447 11.0697 74.8443 10.9534V10.9534ZM84.7881 10.8604C84.0463 10.8604 83.351 11.0929 82.7483 11.5813C82.2384 11.9999 81.8907 12.6045 81.5894 13.3255H81.5662V11.0697H78.553V23.9534H81.5662V17.372C81.5662 16.2557 81.798 15.3255 82.3079 14.6511C82.8179 13.9534 83.4669 13.6045 84.2549 13.6045C84.5331 13.6045 84.8112 13.6743 85.1589 13.7208C85.4834 13.8139 85.7152 13.9069 85.8775 14.0232L85.9934 14.1162V11.0929L85.9238 11.0697C85.7152 10.9301 85.298 10.8604 84.7881 10.8604V10.8604ZM92.9934 10.7906C90.8841 10.7906 89.192 11.4185 88.0099 12.6511C86.8046 13.8836 86.2251 15.5813 86.2251 17.7208C86.2251 19.7208 86.8278 21.3487 87.9867 22.5348C89.1457 23.6976 90.7218 24.3022 92.692 24.3022C94.7549 24.3022 96.4006 23.6743 97.5828 22.4185C98.7881 21.1627 99.3675 19.4883 99.3675 17.4185C99.3675 15.372 98.8112 13.7441 97.6755 12.558C96.5861 11.372 94.9867 10.7906 92.9934 10.7906V10.7906ZM95.404 20.6976C94.8477 21.4185 93.9669 21.7673 92.8775 21.7673C91.7881 21.7673 90.9073 21.4185 90.2814 20.6511C89.6556 19.9301 89.3543 18.8836 89.3543 17.558C89.3543 16.1859 89.6788 15.1394 90.2814 14.3952C90.9073 13.6511 91.7649 13.279 92.8543 13.279C93.9205 13.279 94.755 13.6278 95.3576 14.3487C95.9602 15.0697 96.2848 16.1162 96.2848 17.4883C96.2384 18.8836 95.9834 19.9766 95.404 20.6976V20.6976ZM106.089 16.4185C105.139 16.0232 104.536 15.7208 104.258 15.465C104.026 15.2325 103.911 14.9069 103.911 14.4883C103.911 14.1394 104.05 13.7906 104.397 13.558C104.745 13.3255 105.139 13.2092 105.719 13.2092C106.228 13.2092 106.762 13.3022 107.272 13.4418C107.781 13.5813 108.245 13.7906 108.616 14.0697L108.732 14.1627V11.3255L108.662 11.3022C108.315 11.1627 107.851 11.0232 107.295 10.9069C106.738 10.8139 106.228 10.7673 105.811 10.7673C104.374 10.7673 103.192 11.1162 102.265 11.8836C101.338 12.6045 100.897 13.5813 100.897 14.7208C100.897 15.3255 100.99 15.8604 101.199 16.3022C101.407 16.7441 101.709 17.1627 102.126 17.5115C102.543 17.8371 103.146 18.2092 103.98 18.558C104.675 18.8604 105.209 19.0929 105.533 19.279C105.858 19.465 106.066 19.6743 106.228 19.8371C106.344 20.0232 106.414 20.2557 106.414 20.558C106.414 21.4185 105.765 21.8371 104.444 21.8371C103.934 21.8371 103.401 21.7441 102.775 21.5348C102.149 21.3255 101.57 21.0232 101.083 20.6743L100.967 20.5813V23.5348L101.036 23.558C101.477 23.7673 102.01 23.9069 102.659 24.0697C103.308 24.1859 103.887 24.279 104.397 24.279C105.95 24.279 107.225 23.9301 108.129 23.1627C109.056 22.4185 109.543 21.465 109.543 20.2325C109.543 19.372 109.311 18.6045 108.801 18.0232C108.129 17.465 107.295 16.8836 106.089 16.4185V16.4185ZM117.493 10.7906C115.384 10.7906 113.692 11.4185 112.51 12.6511C111.328 13.8836 110.725 15.5813 110.725 17.7208C110.725 19.7208 111.328 21.3487 112.487 22.5348C113.646 23.6976 115.222 24.3022 117.192 24.3022C119.255 24.3022 120.901 23.6743 122.083 22.4185C123.288 21.1627 123.868 19.4883 123.868 17.4185C123.868 15.372 123.311 13.7441 122.175 12.558C121.086 11.372 119.487 10.7906 117.493 10.7906V10.7906ZM119.881 20.6976C119.324 21.4185 118.444 21.7673 117.354 21.7673C116.242 21.7673 115.384 21.4185 114.758 20.6511C114.132 19.9301 113.831 18.8836 113.831 17.558C113.831 16.1859 114.156 15.1394 114.758 14.3952C115.384 13.6511 116.242 13.279 117.331 13.279C118.374 13.279 119.232 13.6278 119.834 14.3487C120.437 15.0697 120.762 16.1162 120.762 17.4883C120.762 18.8836 120.46 19.9766 119.881 20.6976V20.6976ZM139.977 13.558V11.0697H136.94V7.25571L136.848 7.27897L133.974 8.13943L133.904 8.16269V11.0697H129.361V9.44176C129.361 8.69757 129.546 8.11618 129.871 7.74408C130.195 7.37199 130.682 7.18594 131.285 7.18594C131.702 7.18594 132.142 7.27897 132.629 7.48827L132.745 7.55804V4.93013L132.675 4.90687C132.258 4.76734 131.702 4.67432 130.983 4.67432C130.079 4.67432 129.291 4.88362 128.573 5.23246C127.854 5.6278 127.321 6.16269 126.927 6.88362C126.533 7.58129 126.324 8.37199 126.324 9.27897V11.0697H124.215V13.5348H126.324V23.9534H129.361V13.558H133.904V20.1859C133.904 22.9069 135.179 24.279 137.728 24.279C138.146 24.279 138.586 24.2092 139.003 24.1394C139.444 24.0464 139.768 23.9301 139.954 23.8371L139.977 23.8138V21.3255L139.861 21.4185C139.675 21.5348 139.513 21.6278 139.235 21.6976C139.003 21.7673 138.795 21.7906 138.632 21.7906C138.03 21.7906 137.613 21.6511 137.311 21.3022C137.033 20.9766 136.894 20.4418 136.894 19.6511V13.558H139.977V13.558Z" fill="#B4B6C4"/>
<path d="M0 0H14.2086V14.2558H0V0Z" fill="#B4B6C4"/>
<path d="M15.692 0H29.9006V14.2558H15.692V0Z" fill="#B4B6C4"/>
<path d="M0 15.7441H14.2086V30H0V15.7441Z" fill="#B4B6C4"/>
<path d="M15.692 15.7441H29.9006V30H15.692V15.7441Z" fill="#B4B6C4"/>
</g>
<defs>
<clipPath id="clip0_2203_3753">
<rect width="140" height="30" fill="white"/>
</clipPath>
</defs>
</svg>
