<svg width="123" height="35" viewBox="0 0 123 35" fill="none" xmlns="http://www.w3.org/2000/svg">
<g clip-path="url(#clip0_2203_3650)">
<path d="M26.2313 6.34929C26.1066 6.33879 23.6629 6.30155 23.6629 6.30155C23.6629 6.30155 21.6193 4.31111 21.4174 4.10863C21.3422 4.03318 21.2403 3.99402 21.1336 3.97778L21.1345 34.4254L30.2929 32.1427C30.2929 32.1427 26.556 6.80395 26.5322 6.6301C26.5084 6.45624 26.356 6.35979 26.2313 6.34929Z" fill="#B4B6C4"/>
<path fill-rule="evenodd" clip-rule="evenodd" d="M26.2304 6.3482C26.356 6.3587 26.5075 6.45515 26.5313 6.629C26.5551 6.80285 30.2919 32.1426 30.2919 32.1426L21.1327 34.4262L0 30.7606C0 30.7606 2.52171 11.2039 2.61504 10.5153C2.74074 9.60412 2.77121 9.57451 3.73495 9.27081C3.75547 9.26415 4.4067 9.06189 5.44308 8.74001C5.89782 8.59877 6.4267 8.43451 7.009 8.25363C7.21278 6.78948 7.93178 4.89836 8.87648 3.39312C10.2192 1.2537 11.8753 0.0493192 13.538 0.00156417C14.3999 -0.0242235 15.1188 0.268992 15.6798 0.870703C15.7197 0.914642 15.7578 0.959528 15.7959 1.00537C15.8055 1.00456 15.815 1.00373 15.8246 1.0029C15.9043 0.995998 15.9835 0.98914 16.0635 0.98914H16.0683C17.3558 0.991045 18.4215 1.72743 19.149 3.11996C19.3747 3.55167 19.5328 3.98147 19.6404 4.33103C19.8046 4.28003 19.9518 4.23433 20.08 4.19453C20.4535 4.07857 20.6656 4.01274 20.667 4.01203C20.8203 3.96618 21.2146 3.90506 21.4164 4.10754C21.6183 4.31002 23.662 6.30046 23.662 6.30046C23.662 6.30046 26.1056 6.3377 26.2304 6.3482ZM17.5303 4.98614C17.9065 4.86933 18.2592 4.75982 18.5824 4.65958C18.3205 3.80573 17.6996 2.37403 16.4378 2.1343C16.8301 3.14958 16.9301 4.32435 16.9425 5.16866C17.1439 5.10612 17.3401 5.0452 17.5303 4.98614ZM12.3086 6.608L15.8369 5.51249C15.8483 4.59082 15.7483 3.22789 15.2883 2.26515C14.7988 2.46763 14.3856 2.82198 14.0904 3.14002C13.2961 3.99484 12.6495 5.29855 12.3086 6.608ZM14.5713 1.37404C14.2903 1.18876 13.9618 1.10279 13.5713 1.11139C11.0048 1.18589 8.76601 5.20591 8.19363 7.88498C8.71911 7.72223 9.27083 7.55079 9.83784 7.37461C10.2491 7.24682 10.6684 7.11654 11.0915 6.98526C11.4143 5.28327 12.2238 3.5192 13.2799 2.38263C13.6875 1.94424 14.1218 1.60804 14.5713 1.37404ZM14.9931 15.0636L16.0568 11.0723C16.0568 11.0723 15.1397 10.6138 13.3475 10.7294C8.69551 11.0235 6.58706 14.2862 6.78993 17.5058C6.92526 19.6551 8.18787 20.5537 9.29453 21.3412C10.1579 21.9556 10.9263 22.5024 10.9905 23.5229C11.0258 24.0855 10.6772 24.8811 9.70205 24.9432C8.20883 25.0377 6.3433 23.6261 6.3433 23.6261L5.63 26.669C5.63 26.669 7.48319 28.6604 10.8496 28.4474C13.6541 28.2698 15.6007 26.0195 15.394 22.7302C15.235 20.2011 13.4593 19.0592 12.0558 18.1566C11.1388 17.5669 10.3807 17.0794 10.3363 16.374C10.3153 16.0464 10.3372 14.7417 12.4 14.6109C13.8065 14.522 14.9931 15.0636 14.9931 15.0636Z" fill="#B4B6C4"/>
<path d="M42.3533 19.4301C41.3001 18.8569 40.7589 18.3738 40.7589 17.7097C40.7589 16.8647 41.5107 16.3219 42.6848 16.3219C44.0516 16.3219 45.2719 16.895 45.2719 16.895L46.2344 13.9375C46.2344 13.9375 45.3494 13.2432 42.7443 13.2432C39.1191 13.2432 36.6067 15.3253 36.6067 18.2525C36.6067 19.9122 37.7798 21.1797 39.3449 22.0844C40.6087 22.8082 41.0602 23.3216 41.0602 24.0757C41.0602 24.8601 40.4283 25.4938 39.2552 25.4938C37.5068 25.4938 35.8558 24.5882 35.8558 24.5882L34.8329 27.5457C34.8329 27.5457 36.3583 28.5716 38.9246 28.5716C42.6555 28.5716 45.3333 26.731 45.3333 23.4116C45.3324 21.6326 43.9789 20.365 42.3533 19.4301Z" fill="#B4B6C4"/>
<path d="M57.2167 13.2138C55.3814 13.2138 53.9372 14.0891 52.8245 15.4163L52.764 15.3859L54.3584 7.02783H50.2062L46.1749 28.3007H50.3271L51.7109 21.0291C52.2521 18.2829 53.666 16.5938 54.9903 16.5938C55.9226 16.5938 56.2843 17.2275 56.2843 18.1332C56.2843 18.7063 56.2239 19.4007 56.1039 19.9738L54.5398 28.3016H58.6922L60.3163 19.7019C60.4971 18.7963 60.6178 17.7107 60.6178 16.986C60.6161 14.6319 59.3827 13.2138 57.2167 13.2138Z" fill="#B4B6C4"/>
<path d="M70.003 13.2136C65.0081 13.2136 61.6997 17.7399 61.6997 22.7787C61.6997 26.0071 63.6848 28.6018 67.416 28.6018C72.32 28.6018 75.6296 24.1968 75.6296 19.0368C75.6296 16.0499 73.8841 13.2136 70.003 13.2136ZM67.9572 25.4046C66.543 25.4046 65.9412 24.1977 65.9412 22.6886C65.9412 20.3052 67.1752 16.4127 69.4315 16.4127C70.9058 16.4127 71.3863 17.6802 71.3863 18.9174C71.3863 21.4818 70.1541 25.4046 67.9572 25.4046Z" fill="#B4B6C4"/>
<path d="M86.2499 13.2136C83.4472 13.2136 81.8568 15.688 81.8568 15.688H81.7973L82.0381 13.4552H78.3676C78.1874 14.9643 77.8556 17.2568 77.5255 18.9771L74.637 34.2146H78.7892L79.9317 28.059H80.0227C80.0227 28.059 80.8745 28.6018 82.4598 28.6018C87.3334 28.6018 90.5223 23.5934 90.5223 18.5234C90.5223 15.7184 89.2883 13.2136 86.2499 13.2136ZM82.2784 25.4643C81.2006 25.4643 80.5627 24.8608 80.5627 24.8608L81.255 20.9684C81.7367 18.3737 83.0902 16.6533 84.5348 16.6533C85.7985 16.6533 86.1893 17.8299 86.1893 18.9468C86.1893 21.6324 84.5948 25.4643 82.2784 25.4643Z" fill="#B4B6C4"/>
<path d="M96.4491 7.23901C95.1259 7.23901 94.0727 8.29527 94.0727 9.65275C94.0727 10.89 94.8547 11.735 96.0281 11.735H96.0882C97.3822 11.735 98.495 10.8596 98.5253 9.32123C98.5253 8.1143 97.7129 7.23901 96.4491 7.23901Z" fill="#B4B6C4"/>
<path d="M90.643 28.3005H94.7941L97.6231 13.5461H93.4405L90.643 28.3005Z" fill="#B4B6C4"/>
<path d="M108.183 13.5159H105.295L105.445 12.8216C105.686 11.4034 106.528 10.1359 107.912 10.1359C108.651 10.1359 109.235 10.3472 109.235 10.3472L110.048 7.08844C110.048 7.08844 109.326 6.72656 107.791 6.72656C106.317 6.72656 104.843 7.14903 103.73 8.11434C102.315 9.32127 101.653 11.0709 101.323 12.8216L101.203 13.5159H99.277L98.6752 16.6544H100.601L98.4052 28.3016H102.557L104.754 16.6544H107.612L108.183 13.5159Z" fill="#B4B6C4"/>
<path d="M118.172 13.5461C118.172 13.5461 115.576 20.1043 114.411 23.6843H114.35C114.271 22.5314 113.327 13.5461 113.327 13.5461H108.964L111.463 27.0936C111.523 27.3949 111.493 27.5768 111.372 27.788C110.89 28.723 110.078 29.6286 109.115 30.2927C108.333 30.8658 107.461 31.2277 106.769 31.4692L107.912 34.9999C108.755 34.819 110.499 34.1246 111.973 32.7368C113.869 30.9567 115.614 28.2105 117.419 24.4686L122.503 13.5452H118.172V13.5461Z" fill="#B4B6C4"/>
</g>
<defs>
<clipPath id="clip0_2203_3650">
<rect width="123" height="35" fill="white"/>
</clipPath>
</defs>
</svg>
