<svg width="135" height="34" viewBox="0 0 135 34" fill="none" xmlns="http://www.w3.org/2000/svg">
<path d="M43.238 26.6377L44.9187 22.7826C46.7349 24.1212 49.1476 24.8172 51.5331 24.8172C53.2952 24.8172 54.4066 24.1479 54.4066 23.1306C54.3795 20.2928 43.8614 22.5149 43.7801 15.3936C43.753 11.7794 47.006 8.99517 51.6145 8.99517C54.3524 8.99517 57.0904 9.66446 59.0422 11.1904L57.4699 15.1259C55.6807 14.0015 53.4578 13.1983 51.3434 13.1983C49.9066 13.1983 48.9578 13.8676 48.9578 14.7243C48.9849 17.5086 59.5843 15.9826 59.6928 22.7826C59.6928 26.4771 56.5211 29.0739 51.9669 29.0739C48.6325 29.0739 45.5693 28.2975 43.238 26.6377ZM107.729 21.3904C106.889 22.8361 105.316 23.8267 103.5 23.8267C100.816 23.8267 98.6476 21.6849 98.6476 19.0345C98.6476 16.3841 100.816 14.2424 103.5 14.2424C105.316 14.2424 106.889 15.233 107.729 16.6786L112.364 14.1353C110.63 11.0834 107.295 8.99517 103.5 8.99517C97.8886 8.99517 93.3343 13.4928 93.3343 19.0345C93.3343 24.5763 97.8886 29.0739 103.5 29.0739C107.322 29.0739 110.63 27.0125 112.364 23.9338L107.729 21.3904ZM62.0241 0.669189H67.8253V28.6991H62.0241V0.669189ZM114.642 0.669189V28.6991H120.443V20.2928L127.328 28.6991H134.756L126 18.7133L134.105 9.39675H127.003L120.443 17.1338V0.669189H114.642ZM85.0663 21.444C84.2259 22.8093 82.491 23.8267 80.5392 23.8267C77.8554 23.8267 75.6868 21.6849 75.6868 19.0345C75.6868 16.3841 77.8554 14.2424 80.5392 14.2424C82.491 14.2424 84.2259 15.3133 85.0663 16.7054V21.444ZM85.0663 9.39675V11.6723C84.1175 10.0928 81.759 8.99517 79.2922 8.99517C74.1958 8.99517 70.1837 13.4393 70.1837 19.0078C70.1837 24.5763 74.1958 29.0739 79.2922 29.0739C81.759 29.0739 84.1175 27.9763 85.0663 26.3967V28.6723H90.8675V9.39675H85.0663Z" fill="#B4B6C4"/>
<path d="M7.37393 21.4174C7.37393 23.3717 5.77453 24.9513 3.79562 24.9513C1.8167 24.9513 0.217304 23.3717 0.217304 21.4174C0.217304 19.4631 1.8167 17.8835 3.79562 17.8835H7.37393V21.4174ZM9.16308 21.4174C9.16308 19.4631 10.7625 17.8835 12.7414 17.8835C14.7203 17.8835 16.3197 19.4631 16.3197 21.4174V30.252C16.3197 32.2064 14.7203 33.7859 12.7414 33.7859C10.7625 33.7859 9.16308 32.2064 9.16308 30.252V21.4174Z" fill="#B4B6C4"/>
<path d="M12.741 7.22836C10.7621 7.22836 9.16268 5.64883 9.16268 3.6945C9.16268 1.74017 10.7621 0.160645 12.741 0.160645C14.7199 0.160645 16.3193 1.74017 16.3193 3.6945V7.22836H12.741ZM12.741 9.02206C14.7199 9.02206 16.3193 10.6016 16.3193 12.5559C16.3193 14.5103 14.7199 16.0898 12.741 16.0898H3.76811C1.78919 16.0898 0.189792 14.5103 0.189792 12.5559C0.189792 10.6016 1.78919 9.02206 3.76811 9.02206H12.741Z" fill="#B4B6C4"/>
<path d="M27.0814 12.5559C27.0814 10.6016 28.6808 9.02206 30.6597 9.02206C32.6386 9.02206 34.238 10.6016 34.238 12.5559C34.238 14.5103 32.6386 16.0898 30.6597 16.0898H27.0814V12.5559ZM25.2922 12.5559C25.2922 14.5103 23.6928 16.0898 21.7139 16.0898C19.735 16.0898 18.1356 14.5103 18.1356 12.5559V3.6945C18.1356 1.74017 19.735 0.160645 21.7139 0.160645C23.6928 0.160645 25.2922 1.74017 25.2922 3.6945V12.5559Z" fill="#B4B6C4"/>
<path d="M21.7139 26.7182C23.6928 26.7182 25.2922 28.2977 25.2922 30.252C25.2922 32.2064 23.6928 33.7859 21.7139 33.7859C19.735 33.7859 18.1356 32.2064 18.1356 30.252V26.7182H21.7139ZM21.7139 24.9513C19.735 24.9513 18.1356 23.3717 18.1356 21.4174C18.1356 19.4631 19.735 17.8835 21.7139 17.8835H30.6868C32.6657 17.8835 34.2651 19.4631 34.2651 21.4174C34.2651 23.3717 32.6657 24.9513 30.6868 24.9513H21.7139Z" fill="#B4B6C4"/>
</svg>
