<svg width="575" height="525" viewBox="0 0 575 525" fill="none" xmlns="http://www.w3.org/2000/svg">
<g filter="url(#filter0_d_201_8017)">
<rect x="256" y="76.5" width="257" height="220" rx="6" fill="white"/>
</g>
<path d="M285.312 101.524C286.219 101.524 287.04 101.716 287.776 102.1C288.523 102.484 289.115 103.044 289.552 103.78C289.989 104.516 290.208 105.385 290.208 106.388V107.636C290.208 108.639 289.989 109.508 289.552 110.244C289.115 110.98 288.523 111.54 287.776 111.924C287.04 112.308 286.219 112.5 285.312 112.5H281.152V101.524H285.312ZM283.632 110.532H285.312C285.995 110.532 286.549 110.313 286.976 109.876C287.403 109.428 287.616 108.799 287.616 107.988V106.036C287.616 105.225 287.403 104.601 286.976 104.164C286.549 103.716 285.995 103.492 285.312 103.492H283.632V110.532ZM297.033 106.98C297.033 106.617 296.915 106.324 296.681 106.1C296.457 105.876 296.089 105.764 295.577 105.764C295.278 105.764 295.022 105.817 294.809 105.924C294.595 106.02 294.43 106.143 294.313 106.292C294.206 106.441 294.153 106.58 294.153 106.708V106.836H291.897C291.875 106.708 291.865 106.612 291.865 106.548C291.865 106.089 292.014 105.679 292.313 105.316C292.622 104.953 293.049 104.671 293.593 104.468C294.137 104.265 294.761 104.164 295.465 104.164H295.801C296.953 104.164 297.827 104.393 298.425 104.852C299.022 105.3 299.321 105.919 299.321 106.708V110.484C299.321 110.676 299.363 110.82 299.449 110.916C299.545 111.012 299.657 111.06 299.785 111.06C299.891 111.06 300.009 111.039 300.137 110.996C300.265 110.953 300.366 110.916 300.441 110.884V112.324C300.046 112.548 299.577 112.66 299.033 112.66C298.446 112.66 297.998 112.543 297.689 112.308C297.379 112.063 297.198 111.721 297.145 111.284C296.398 112.201 295.481 112.66 294.393 112.66C293.582 112.66 292.915 112.495 292.393 112.164C291.87 111.833 291.609 111.204 291.609 110.276C291.609 109.519 291.822 108.943 292.249 108.548C292.686 108.143 293.289 107.871 294.057 107.732C294.825 107.593 295.817 107.524 297.033 107.524V106.98ZM297.033 108.836C296.019 108.836 295.262 108.937 294.761 109.14C294.27 109.332 294.025 109.652 294.025 110.1C294.025 110.452 294.121 110.703 294.313 110.852C294.515 110.991 294.819 111.06 295.225 111.06C295.502 111.06 295.779 110.985 296.057 110.836C296.334 110.687 296.563 110.473 296.745 110.196C296.937 109.919 297.033 109.609 297.033 109.268V108.836ZM306.019 112.356C305.806 112.441 305.523 112.511 305.171 112.564C304.83 112.628 304.526 112.66 304.259 112.66C303.438 112.66 302.819 112.484 302.403 112.132C301.987 111.78 301.779 111.193 301.779 110.372V105.924H300.883V104.324H301.859L302.675 101.716H304.115V104.324H306.019V105.924H304.115V109.972C304.115 110.399 304.195 110.687 304.355 110.836C304.526 110.985 304.75 111.06 305.027 111.06C305.155 111.06 305.321 111.039 305.523 110.996C305.726 110.953 305.891 110.905 306.019 110.852V112.356ZM312.533 106.98C312.533 106.617 312.415 106.324 312.181 106.1C311.957 105.876 311.589 105.764 311.077 105.764C310.778 105.764 310.522 105.817 310.309 105.924C310.095 106.02 309.93 106.143 309.813 106.292C309.706 106.441 309.653 106.58 309.653 106.708V106.836H307.397C307.375 106.708 307.365 106.612 307.365 106.548C307.365 106.089 307.514 105.679 307.813 105.316C308.122 104.953 308.549 104.671 309.093 104.468C309.637 104.265 310.261 104.164 310.965 104.164H311.301C312.453 104.164 313.327 104.393 313.925 104.852C314.522 105.3 314.821 105.919 314.821 106.708V110.484C314.821 110.676 314.863 110.82 314.949 110.916C315.045 111.012 315.157 111.06 315.285 111.06C315.391 111.06 315.509 111.039 315.637 110.996C315.765 110.953 315.866 110.916 315.941 110.884V112.324C315.546 112.548 315.077 112.66 314.533 112.66C313.946 112.66 313.498 112.543 313.189 112.308C312.879 112.063 312.698 111.721 312.645 111.284C311.898 112.201 310.981 112.66 309.893 112.66C309.082 112.66 308.415 112.495 307.893 112.164C307.37 111.833 307.109 111.204 307.109 110.276C307.109 109.519 307.322 108.943 307.749 108.548C308.186 108.143 308.789 107.871 309.557 107.732C310.325 107.593 311.317 107.524 312.533 107.524V106.98ZM312.533 108.836C311.519 108.836 310.762 108.937 310.261 109.14C309.77 109.332 309.525 109.652 309.525 110.1C309.525 110.452 309.621 110.703 309.813 110.852C310.015 110.991 310.319 111.06 310.725 111.06C311.002 111.06 311.279 110.985 311.557 110.836C311.834 110.687 312.063 110.473 312.245 110.196C312.437 109.919 312.533 109.609 312.533 109.268V108.836ZM327.099 110.34H322.731L321.963 112.5H319.579L323.563 101.524H326.507L330.491 112.5H327.899L327.099 110.34ZM323.403 108.468H326.443C326.038 107.263 325.547 105.828 324.971 104.164H324.891L323.403 108.468ZM333.572 105.524C334.244 104.617 335.113 104.164 336.18 104.164C337.012 104.164 337.694 104.388 338.228 104.836C338.772 105.284 339.044 105.935 339.044 106.788V112.5H336.708V107.3C336.708 106.884 336.585 106.543 336.34 106.276C336.105 105.999 335.801 105.86 335.428 105.86C335.012 105.86 334.654 106.02 334.356 106.34C334.057 106.649 333.908 107.028 333.908 107.476V112.5H331.572V104.324H333.316L333.572 105.524ZM346.127 106.98C346.127 106.617 346.009 106.324 345.775 106.1C345.551 105.876 345.183 105.764 344.671 105.764C344.372 105.764 344.116 105.817 343.903 105.924C343.689 106.02 343.524 106.143 343.407 106.292C343.3 106.441 343.247 106.58 343.247 106.708V106.836H340.991C340.969 106.708 340.959 106.612 340.959 106.548C340.959 106.089 341.108 105.679 341.407 105.316C341.716 104.953 342.143 104.671 342.687 104.468C343.231 104.265 343.855 104.164 344.559 104.164H344.895C346.047 104.164 346.921 104.393 347.519 104.852C348.116 105.3 348.415 105.919 348.415 106.708V110.484C348.415 110.676 348.457 110.82 348.543 110.916C348.639 111.012 348.751 111.06 348.878 111.06C348.985 111.06 349.103 111.039 349.231 110.996C349.359 110.953 349.46 110.916 349.535 110.884V112.324C349.14 112.548 348.671 112.66 348.127 112.66C347.54 112.66 347.092 112.543 346.783 112.308C346.473 112.063 346.292 111.721 346.239 111.284C345.492 112.201 344.575 112.66 343.487 112.66C342.676 112.66 342.009 112.495 341.487 112.164C340.964 111.833 340.703 111.204 340.703 110.276C340.703 109.519 340.916 108.943 341.343 108.548C341.78 108.143 342.383 107.871 343.151 107.732C343.919 107.593 344.911 107.524 346.127 107.524V106.98ZM346.127 108.836C345.113 108.836 344.356 108.937 343.855 109.14C343.364 109.332 343.119 109.652 343.119 110.1C343.119 110.452 343.215 110.703 343.407 110.852C343.609 110.991 343.913 111.06 344.319 111.06C344.596 111.06 344.873 110.985 345.151 110.836C345.428 110.687 345.657 110.473 345.839 110.196C346.031 109.919 346.127 109.609 346.127 109.268V108.836ZM350.681 112.5V100.98H353.017V112.5H350.681ZM359.662 112.052C359.267 113.119 358.782 113.956 358.206 114.564C357.63 115.183 356.936 115.492 356.126 115.492C355.56 115.492 355.102 115.412 354.75 115.252V113.604C354.878 113.657 355.043 113.705 355.246 113.748C355.448 113.801 355.64 113.828 355.822 113.828C356.504 113.828 356.99 113.332 357.278 112.34L354.19 104.324H356.67L358.478 109.46H358.574L360.27 104.324H362.574L359.662 112.052ZM368.16 112.356C367.947 112.441 367.664 112.511 367.312 112.564C366.971 112.628 366.667 112.66 366.4 112.66C365.579 112.66 364.96 112.484 364.544 112.132C364.128 111.78 363.92 111.193 363.92 110.372V105.924H363.024V104.324H364L364.816 101.716H366.256V104.324H368.16V105.924H366.256V109.972C366.256 110.399 366.336 110.687 366.496 110.836C366.667 110.985 366.891 111.06 367.168 111.06C367.296 111.06 367.461 111.039 367.664 110.996C367.867 110.953 368.032 110.905 368.16 110.852V112.356ZM369.649 100.98H372.017V102.82H369.649V100.98ZM369.665 112.5V104.324H372.001V112.5H369.665ZM376.119 109.188C376.119 109.721 376.257 110.169 376.535 110.532C376.812 110.884 377.185 111.06 377.655 111.06C378.145 111.06 378.529 110.911 378.807 110.612C379.095 110.303 379.239 109.849 379.239 109.252H381.447C381.447 110.009 381.281 110.644 380.951 111.156C380.631 111.668 380.204 112.047 379.671 112.292C379.137 112.537 378.551 112.66 377.911 112.66H377.655C376.46 112.66 375.511 112.308 374.807 111.604C374.103 110.889 373.751 109.903 373.751 108.644V108.18C373.751 107.348 373.916 106.633 374.247 106.036C374.588 105.428 375.052 104.964 375.639 104.644C376.225 104.324 376.897 104.164 377.655 104.164H377.911C378.54 104.164 379.121 104.303 379.655 104.58C380.199 104.847 380.631 105.241 380.951 105.764C381.281 106.276 381.447 106.884 381.447 107.588H379.127C379.127 107.033 379.004 106.591 378.759 106.26C378.513 105.929 378.151 105.764 377.671 105.764C377.191 105.764 376.812 105.956 376.535 106.34C376.257 106.713 376.119 107.188 376.119 107.764V109.188ZM384.669 110.004C384.669 110.377 384.834 110.649 385.165 110.82C385.495 110.98 385.906 111.06 386.397 111.06C386.823 111.06 387.202 110.996 387.533 110.868C387.874 110.74 388.045 110.537 388.045 110.26C388.045 109.961 387.89 109.748 387.581 109.62C387.271 109.492 386.791 109.38 386.141 109.284C385.458 109.167 384.898 109.039 384.461 108.9C384.023 108.761 383.645 108.521 383.325 108.18C383.015 107.839 382.861 107.364 382.861 106.756C382.861 106.201 383.021 105.732 383.341 105.348C383.671 104.953 384.103 104.66 384.637 104.468C385.181 104.265 385.773 104.164 386.413 104.164H386.733C387.298 104.164 387.831 104.26 388.333 104.452C388.845 104.633 389.255 104.895 389.565 105.236C389.874 105.567 390.029 105.945 390.029 106.372C390.029 106.457 390.023 106.537 390.013 106.612C390.002 106.676 389.997 106.713 389.997 106.724H387.949C387.949 106.084 387.458 105.764 386.477 105.764C386.029 105.764 385.666 105.828 385.389 105.956C385.122 106.084 384.989 106.26 384.989 106.484C384.989 106.751 385.133 106.937 385.421 107.044C385.719 107.151 386.183 107.252 386.813 107.348C387.527 107.465 388.103 107.593 388.541 107.732C388.989 107.86 389.378 108.1 389.709 108.452C390.039 108.793 390.205 109.279 390.205 109.908C390.205 110.879 389.863 111.583 389.181 112.02C388.498 112.447 387.629 112.66 386.573 112.66H386.045C385.383 112.66 384.791 112.559 384.269 112.356C383.746 112.153 383.335 111.865 383.037 111.492C382.749 111.119 382.605 110.692 382.605 110.212L382.621 109.892H384.669V110.004Z" fill="#060C3C"/>
<rect x="280" y="270.5" width="24" height="6" rx="3" fill="#B4B6C4"/>
<rect x="326" y="270.5" width="24" height="6" rx="3" fill="#B4B6C4"/>
<rect x="372" y="270.5" width="24" height="6" rx="3" fill="#B4B6C4"/>
<rect x="418" y="270.5" width="24" height="6" rx="3" fill="#B4B6C4"/>
<rect x="464" y="270.5" width="24" height="6" rx="3" fill="#B4B6C4"/>
<line opacity="0.2" x1="280.5" y1="226" x2="488.5" y2="226" stroke="#B4B6C4" stroke-linecap="round"/>
<line opacity="0.2" x1="280.5" y1="198" x2="488.5" y2="198" stroke="#B4B6C4" stroke-linecap="round"/>
<line opacity="0.2" x1="280.5" y1="170" x2="488.5" y2="170" stroke="#B4B6C4" stroke-linecap="round"/>
<line opacity="0.2" x1="280.5" y1="142" x2="488.5" y2="142" stroke="#B4B6C4" stroke-linecap="round"/>
<line opacity="0.2" x1="280.5" y1="254" x2="488.5" y2="254" stroke="#B4B6C4" stroke-linecap="round"/>
<rect x="281" y="175.5" width="16" height="78" fill="#9374FF"/>
<rect x="409" y="156.5" width="16" height="97" fill="#9374FF"/>
<rect x="345" y="198.5" width="16" height="55" fill="#9374FF"/>
<rect x="473" y="180.5" width="16" height="73" fill="#9374FF"/>
<rect x="377" y="186.5" width="16" height="67" fill="#FFDC60"/>
<rect x="313" y="200.5" width="16" height="53" fill="#FFDC60"/>
<rect x="441" y="167.5" width="16" height="86" fill="#FFDC60"/>
<path d="M281.5 172C293.631 140.581 305.142 200.5 320.5 200.5C333.855 200.5 338.48 177.049 350.5 177.049C358.513 177.049 364.02 187.09 373 187C381.98 186.91 378 170.5 393.5 185.5C408.377 199.897 404.314 139.522 417.002 139.522C427.018 139.522 423.011 164.767 438.37 164.767C450.389 164.767 452.393 146.345 463.077 146.345C475.764 146.345 467.083 177.049 486.448 177.049" stroke="#6241D4" stroke-width="2" stroke-linecap="round" stroke-linejoin="round"/>
<g filter="url(#filter1_d_201_8017)">
<rect x="38" y="328.5" width="388" height="150" rx="6" fill="white"/>
</g>
<circle cx="377" cy="426.5" r="25" fill="#9374FF"/>
<circle cx="341" cy="426.5" r="25" fill="#FFDC60"/>
<circle cx="305" cy="426.5" r="25" fill="#9374FF"/>
<circle cx="269" cy="426.5" r="25" fill="#FFDC60"/>
<path d="M69.7824 443.823C69.3797 443.392 68.6202 443.392 68.2176 443.823L64.2255 448.086C63.6938 448.654 64.162 449.5 65.0079 449.5L72.9921 449.5C73.838 449.5 74.3062 448.654 73.7745 448.086L69.7824 443.823Z" fill="#38E7B2"/>
<path d="M87.312 443.756C87.9187 443.756 88.46 443.868 88.936 444.092C89.412 444.316 89.7807 444.629 90.042 445.03C90.3033 445.422 90.434 445.865 90.434 446.36C90.434 446.892 90.2987 447.331 90.028 447.676C89.7667 448.012 89.3933 448.292 88.908 448.516L88.922 448.558C89.454 448.726 89.874 449.011 90.182 449.412C90.4993 449.804 90.658 450.308 90.658 450.924C90.658 451.447 90.5133 451.913 90.224 452.324C89.9347 452.735 89.5333 453.057 89.02 453.29C88.5067 453.523 87.9373 453.64 87.312 453.64H87.144C86.1267 453.64 85.3147 453.388 84.708 452.884C84.1107 452.371 83.812 451.671 83.812 450.784V450.672H85.184V450.826C85.184 451.339 85.3567 451.731 85.702 452.002C86.0473 452.263 86.542 452.394 87.186 452.394C87.8487 452.394 88.362 452.263 88.726 452.002C89.0993 451.731 89.286 451.325 89.286 450.784C89.286 449.757 88.5673 449.244 87.13 449.244H86.08V447.984H87.158C87.7273 447.984 88.1847 447.853 88.53 447.592C88.8847 447.331 89.062 446.957 89.062 446.472C89.062 445.996 88.8893 445.632 88.544 445.38C88.208 445.128 87.7553 445.002 87.186 445.002C86.654 445.002 86.2247 445.133 85.898 445.394C85.5713 445.655 85.408 446.019 85.408 446.486V446.612H84.036V446.36C84.036 445.847 84.1713 445.394 84.442 445.002C84.722 444.601 85.1 444.293 85.576 444.078C86.0613 443.863 86.598 443.756 87.186 443.756H87.312ZM96.0373 443.756C96.7093 443.756 97.2786 443.891 97.7453 444.162C98.2119 444.433 98.5619 444.783 98.7953 445.212C99.0286 445.641 99.1453 446.094 99.1453 446.57C99.1453 447.242 99.0099 447.793 98.7393 448.222C98.4686 448.651 98.0346 449.095 97.4373 449.552L94.7633 451.596C94.5486 451.745 94.3806 451.881 94.2593 452.002C94.1473 452.114 94.0913 452.198 94.0913 452.254H99.1873V453.5H92.5933V453.164C92.5933 452.688 92.7053 452.235 92.9293 451.806C93.1626 451.367 93.4846 450.994 93.8953 450.686L96.6813 448.586C97.0733 448.269 97.3533 447.956 97.5213 447.648C97.6893 447.34 97.7733 446.999 97.7733 446.626C97.7733 446.346 97.7033 446.085 97.5633 445.842C97.4233 445.59 97.2179 445.389 96.9473 445.24C96.6766 445.081 96.3499 445.002 95.9673 445.002C95.5753 445.002 95.2253 445.086 94.9173 445.254C94.6186 445.422 94.3853 445.646 94.2173 445.926C94.0493 446.206 93.9653 446.514 93.9653 446.85V447.046C93.9653 447.121 93.9699 447.177 93.9793 447.214H92.6073L92.5933 447.074V446.962C92.5933 446.421 92.7146 445.907 92.9573 445.422C93.1999 444.927 93.5779 444.526 94.0913 444.218C94.6046 443.91 95.2533 443.756 96.0373 443.756ZM108.529 443.896L102.705 453.5H101.725L107.577 443.896H108.529ZM102.439 443.91C102.933 443.91 103.339 444.073 103.657 444.4C103.974 444.717 104.133 445.119 104.133 445.604V447.102C104.133 447.587 103.969 447.993 103.643 448.32C103.325 448.637 102.924 448.796 102.439 448.796H102.341C101.855 448.796 101.449 448.637 101.123 448.32C100.805 447.993 100.647 447.587 100.647 447.102V445.604C100.647 445.119 100.805 444.717 101.123 444.4C101.44 444.073 101.846 443.91 102.341 443.91H102.439ZM102.397 444.68C102.135 444.68 101.925 444.759 101.767 444.918C101.617 445.067 101.543 445.263 101.543 445.506V447.2C101.543 447.443 101.617 447.643 101.767 447.802C101.925 447.951 102.135 448.026 102.397 448.026C102.658 448.026 102.863 447.951 103.013 447.802C103.162 447.643 103.237 447.443 103.237 447.2V445.506C103.237 445.263 103.162 445.067 103.013 444.918C102.863 444.759 102.658 444.68 102.397 444.68ZM107.899 448.628C108.384 448.628 108.785 448.791 109.103 449.118C109.429 449.435 109.593 449.837 109.593 450.322V451.82C109.593 452.305 109.434 452.711 109.117 453.038C108.799 453.355 108.393 453.514 107.899 453.514H107.801C107.306 453.514 106.9 453.355 106.583 453.038C106.265 452.711 106.107 452.305 106.107 451.82V450.322C106.107 449.837 106.265 449.435 106.583 449.118C106.909 448.791 107.315 448.628 107.801 448.628H107.899ZM107.857 449.398C107.595 449.398 107.385 449.477 107.227 449.636C107.077 449.785 107.003 449.981 107.003 450.224V451.918C107.003 452.161 107.077 452.361 107.227 452.52C107.385 452.669 107.595 452.744 107.857 452.744C108.118 452.744 108.323 452.669 108.473 452.52C108.622 452.361 108.697 452.161 108.697 451.918V450.224C108.697 449.981 108.622 449.785 108.473 449.636C108.323 449.477 108.118 449.398 107.857 449.398ZM116.136 446.346H117.802V447.396H116.136V451.666C116.136 452.002 116.201 452.245 116.332 452.394C116.462 452.543 116.663 452.618 116.934 452.618C117.176 452.618 117.466 452.548 117.802 452.408V453.388C117.466 453.556 117.032 453.64 116.5 453.64C115.949 453.64 115.529 453.477 115.24 453.15C114.96 452.823 114.82 452.305 114.82 451.596V447.396H114.036V446.346H114.862L115.31 444.064H116.136V446.346ZM120.751 447.242C121.339 446.551 122.077 446.206 122.963 446.206C123.747 446.206 124.363 446.416 124.811 446.836C125.259 447.256 125.483 447.872 125.483 448.684V453.5H124.167V448.922C124.167 447.811 123.663 447.256 122.655 447.256C122.319 447.256 122.007 447.345 121.717 447.522C121.428 447.699 121.195 447.942 121.017 448.25C120.84 448.549 120.751 448.88 120.751 449.244V453.5H119.435V443.42H120.751V447.242ZM129.078 443.42V444.638H127.706V443.42H129.078ZM129.05 446.346V453.5H127.734V446.346H129.05ZM134.101 446.206C134.633 446.206 135.104 446.29 135.515 446.458C135.935 446.626 136.257 446.859 136.481 447.158C136.714 447.457 136.831 447.788 136.831 448.152L136.817 448.404H135.515V448.278C135.515 447.597 134.988 447.256 133.933 447.256C132.888 447.256 132.365 447.569 132.365 448.194C132.365 448.483 132.514 448.698 132.813 448.838C133.112 448.969 133.569 449.095 134.185 449.216C134.773 449.337 135.254 449.463 135.627 449.594C136.01 449.725 136.332 449.93 136.593 450.21C136.864 450.49 136.999 450.868 136.999 451.344C136.999 452.109 136.738 452.683 136.215 453.066C135.692 453.449 134.941 453.64 133.961 453.64H133.751C133.163 453.64 132.65 453.551 132.211 453.374C131.772 453.187 131.432 452.94 131.189 452.632C130.956 452.315 130.844 451.96 130.853 451.568V451.26H132.155V451.4C132.155 452.193 132.822 452.59 134.157 452.59C134.549 452.59 134.899 452.501 135.207 452.324C135.524 452.147 135.683 451.904 135.683 451.596C135.683 451.335 135.594 451.129 135.417 450.98C135.249 450.831 135.039 450.719 134.787 450.644C134.535 450.569 134.185 450.495 133.737 450.42C133.158 450.308 132.692 450.196 132.337 450.084C131.982 449.963 131.679 449.762 131.427 449.482C131.175 449.202 131.049 448.819 131.049 448.334C131.049 447.671 131.31 447.153 131.833 446.78C132.356 446.397 133.07 446.206 133.975 446.206H134.101ZM149.813 446.206C150.551 446.206 151.125 446.421 151.535 446.85C151.946 447.279 152.151 447.891 152.151 448.684V453.5H150.835V448.922C150.835 447.811 150.406 447.256 149.547 447.256C149.249 447.256 148.969 447.345 148.707 447.522C148.455 447.699 148.25 447.942 148.091 448.25C147.942 448.549 147.867 448.88 147.867 449.244V453.5H146.551V448.922C146.551 447.811 146.122 447.256 145.263 447.256C144.965 447.256 144.685 447.345 144.423 447.522C144.171 447.699 143.966 447.942 143.807 448.25C143.658 448.549 143.583 448.88 143.583 449.244V453.5H142.267V446.346H143.219L143.401 447.396C143.943 446.603 144.694 446.206 145.655 446.206C146.598 446.206 147.251 446.603 147.615 447.396C147.933 446.948 148.273 446.64 148.637 446.472C149.001 446.295 149.393 446.206 149.813 446.206ZM157.264 446.206C158.263 446.206 159.061 446.514 159.658 447.13C160.255 447.746 160.554 448.591 160.554 449.664V450.182C160.554 451.255 160.26 452.1 159.672 452.716C159.084 453.332 158.281 453.64 157.264 453.64C156.247 453.64 155.444 453.332 154.856 452.716C154.268 452.1 153.974 451.255 153.974 450.182V449.664C153.974 448.591 154.273 447.746 154.87 447.13C155.467 446.514 156.265 446.206 157.264 446.206ZM157.264 447.256C156.639 447.256 156.153 447.471 155.808 447.9C155.463 448.329 155.29 448.959 155.29 449.79V450.056C155.29 450.868 155.458 451.493 155.794 451.932C156.139 452.371 156.629 452.59 157.264 452.59C157.88 452.59 158.361 452.375 158.706 451.946C159.061 451.507 159.238 450.877 159.238 450.056V449.79C159.238 448.978 159.065 448.353 158.72 447.914C158.384 447.475 157.899 447.256 157.264 447.256ZM165.975 446.206C166.759 446.206 167.375 446.416 167.823 446.836C168.271 447.256 168.495 447.872 168.495 448.684V453.5H167.179V448.922C167.179 447.811 166.675 447.256 165.667 447.256C165.331 447.256 165.018 447.345 164.729 447.522C164.44 447.699 164.206 447.942 164.029 448.25C163.852 448.549 163.763 448.88 163.763 449.244V453.5H162.447V446.346H163.399L163.581 447.396C164.178 446.603 164.976 446.206 165.975 446.206ZM172.218 446.346H173.884V447.396H172.218V451.666C172.218 452.002 172.283 452.245 172.414 452.394C172.544 452.543 172.745 452.618 173.016 452.618C173.258 452.618 173.548 452.548 173.884 452.408V453.388C173.548 453.556 173.114 453.64 172.582 453.64C172.031 453.64 171.611 453.477 171.322 453.15C171.042 452.823 170.902 452.305 170.902 451.596V447.396H170.118V446.346H170.944L171.392 444.064H172.218V446.346ZM176.833 447.242C177.421 446.551 178.159 446.206 179.045 446.206C179.829 446.206 180.445 446.416 180.893 446.836C181.341 447.256 181.565 447.872 181.565 448.684V453.5H180.249V448.922C180.249 447.811 179.745 447.256 178.737 447.256C178.401 447.256 178.089 447.345 177.799 447.522C177.51 447.699 177.277 447.942 177.099 448.25C176.922 448.549 176.833 448.88 176.833 449.244V453.5H175.517V443.42H176.833V447.242Z" fill="#38E7B2"/>
<path d="M66.352 359.444C66.2347 359.273 66.0747 359.023 65.872 358.692C65.6693 358.351 65.536 358.127 65.472 358.02L65.408 358.068V364.5H63.152V353.524H65.248L68.704 358.612L69.184 359.364C69.3547 359.663 69.488 359.881 69.584 360.02L69.632 359.972V353.524H71.888V364.5H69.792L66.352 359.444ZM81.7025 361.444C81.7025 362.159 81.5318 362.761 81.1905 363.252C80.8492 363.732 80.3958 364.089 79.8305 364.324C79.2758 364.548 78.6678 364.66 78.0065 364.66H77.7505C76.9932 364.66 76.3105 364.5 75.7025 364.18C75.0945 363.86 74.6145 363.401 74.2625 362.804C73.9212 362.196 73.7505 361.476 73.7505 360.644V360.18C73.7505 359.359 73.9265 358.644 74.2785 358.036C74.6305 357.428 75.1052 356.964 75.7025 356.644C76.3105 356.324 76.9932 356.164 77.7505 356.164H78.0065C78.6678 356.164 79.2812 356.303 79.8465 356.58C80.4118 356.847 80.8652 357.241 81.2065 357.764C81.5478 358.276 81.7185 358.884 81.7185 359.588V360.804H76.1185V361.188C76.1185 361.721 76.2732 362.169 76.5825 362.532C76.9025 362.884 77.3345 363.06 77.8785 363.06C78.3692 363.06 78.7532 362.927 79.0305 362.66C79.3185 362.383 79.4625 361.977 79.4625 361.444H81.7025ZM77.7665 357.764C77.2972 357.764 76.9132 357.929 76.6145 358.26C76.3265 358.591 76.1612 359.012 76.1185 359.524H79.3505C79.3505 358.98 79.2225 358.553 78.9665 358.244C78.7212 357.924 78.3212 357.764 77.7665 357.764ZM88.9183 359.94C88.3423 361.967 87.9049 363.487 87.6063 364.5H84.9983L82.5023 356.324H84.9183L86.3263 361.38H86.4223C86.6996 360.399 86.9129 359.663 87.0623 359.172L87.8783 356.324H90.2143L91.6383 361.38H91.7343C92.3743 359.14 92.8489 357.455 93.1583 356.324H95.4303L92.9343 364.5H90.3583L89.0143 359.94H88.9183ZM106.007 356.628C106.007 356.223 105.847 355.908 105.527 355.684C105.207 355.449 104.764 355.332 104.199 355.332C103.612 355.332 103.154 355.428 102.823 355.62C102.503 355.801 102.343 356.047 102.343 356.356C102.343 356.623 102.444 356.847 102.647 357.028C102.85 357.199 103.106 357.337 103.415 357.444C103.735 357.551 104.167 357.668 104.711 357.796C105.511 357.988 106.167 358.185 106.679 358.388C107.202 358.591 107.644 358.905 108.007 359.332C108.38 359.759 108.567 360.329 108.567 361.044C108.567 362.292 108.162 363.209 107.351 363.796C106.551 364.372 105.447 364.66 104.039 364.66C102.759 364.66 101.698 364.383 100.855 363.828C100.023 363.263 99.6069 362.409 99.6069 361.268L99.6229 360.916H101.959L101.943 361.172C101.943 361.641 102.119 362.015 102.471 362.292C102.823 362.559 103.319 362.692 103.959 362.692C104.706 362.692 105.239 362.575 105.559 362.34C105.89 362.105 106.055 361.807 106.055 361.444C106.055 361.167 105.954 360.943 105.751 360.772C105.559 360.591 105.308 360.452 104.999 360.356C104.7 360.249 104.279 360.132 103.735 360.004C102.924 359.801 102.263 359.599 101.751 359.396C101.239 359.193 100.796 358.868 100.423 358.42C100.05 357.972 99.8629 357.369 99.8629 356.612C99.8629 355.908 100.055 355.311 100.439 354.82C100.823 354.329 101.335 353.967 101.975 353.732C102.626 353.487 103.351 353.364 104.151 353.364C105.378 353.364 106.38 353.636 107.159 354.18C107.938 354.713 108.327 355.513 108.327 356.58V356.772H106.007V356.628ZM117.699 362.58C117.699 362.74 117.747 362.863 117.843 362.948C117.939 363.023 118.046 363.06 118.163 363.06C118.27 363.06 118.387 363.039 118.515 362.996C118.643 362.953 118.744 362.916 118.819 362.884V364.324C118.424 364.548 117.955 364.66 117.411 364.66C116.344 364.66 115.726 364.271 115.555 363.492C114.883 364.271 114.062 364.66 113.091 364.66C112.259 364.66 111.571 364.436 111.027 363.988C110.494 363.54 110.227 362.889 110.227 362.036V356.324H112.563V361.524C112.563 361.94 112.68 362.287 112.915 362.564C113.16 362.831 113.47 362.964 113.843 362.964C114.259 362.964 114.616 362.809 114.915 362.5C115.214 362.18 115.363 361.796 115.363 361.348V356.324H117.699V362.58ZM122.392 357.268C122.627 356.959 122.936 356.697 123.32 356.484C123.715 356.271 124.168 356.164 124.68 356.164C125.277 356.164 125.811 356.319 126.28 356.628C126.76 356.937 127.139 357.401 127.416 358.02C127.693 358.639 127.832 359.391 127.832 360.276V360.452C127.832 361.38 127.683 362.159 127.384 362.788C127.085 363.417 126.68 363.887 126.168 364.196C125.656 364.505 125.08 364.66 124.44 364.66C123.853 364.66 123.331 364.543 122.872 364.308C122.413 364.063 122.029 363.711 121.72 363.252L121.448 363.668C121.341 363.849 121.24 364.009 121.144 364.148C121.048 364.276 120.968 364.393 120.904 364.5H120.056V352.98H122.392V357.268ZM125.464 359.796C125.464 359.167 125.32 358.687 125.032 358.356C124.744 358.025 124.376 357.86 123.928 357.86C123.48 357.86 123.112 358.025 122.824 358.356C122.536 358.687 122.392 359.167 122.392 359.796V361.124C122.392 361.743 122.536 362.223 122.824 362.564C123.112 362.895 123.48 363.06 123.928 363.06C124.376 363.06 124.744 362.895 125.032 362.564C125.32 362.223 125.464 361.743 125.464 361.124V359.796ZM131.044 362.004C131.044 362.377 131.209 362.649 131.54 362.82C131.87 362.98 132.281 363.06 132.772 363.06C133.198 363.06 133.577 362.996 133.908 362.868C134.249 362.74 134.42 362.537 134.42 362.26C134.42 361.961 134.265 361.748 133.956 361.62C133.646 361.492 133.166 361.38 132.516 361.284C131.833 361.167 131.273 361.039 130.836 360.9C130.398 360.761 130.02 360.521 129.7 360.18C129.39 359.839 129.236 359.364 129.236 358.756C129.236 358.201 129.396 357.732 129.716 357.348C130.046 356.953 130.478 356.66 131.012 356.468C131.556 356.265 132.148 356.164 132.788 356.164H133.108C133.673 356.164 134.206 356.26 134.708 356.452C135.22 356.633 135.63 356.895 135.94 357.236C136.249 357.567 136.404 357.945 136.404 358.372C136.404 358.457 136.398 358.537 136.388 358.612C136.377 358.676 136.372 358.713 136.372 358.724H134.324C134.324 358.084 133.833 357.764 132.852 357.764C132.404 357.764 132.041 357.828 131.764 357.956C131.497 358.084 131.364 358.26 131.364 358.484C131.364 358.751 131.508 358.937 131.796 359.044C132.094 359.151 132.558 359.252 133.188 359.348C133.902 359.465 134.478 359.593 134.916 359.732C135.364 359.86 135.753 360.1 136.084 360.452C136.414 360.793 136.58 361.279 136.58 361.908C136.58 362.879 136.238 363.583 135.556 364.02C134.873 364.447 134.004 364.66 132.948 364.66H132.42C131.758 364.66 131.166 364.559 130.644 364.356C130.121 364.153 129.71 363.865 129.412 363.492C129.124 363.119 128.98 362.692 128.98 362.212L128.996 361.892H131.044V362.004ZM140.197 361.188C140.197 361.721 140.335 362.169 140.613 362.532C140.89 362.884 141.263 363.06 141.733 363.06C142.223 363.06 142.607 362.911 142.885 362.612C143.173 362.303 143.317 361.849 143.317 361.252H145.525C145.525 362.009 145.359 362.644 145.029 363.156C144.709 363.668 144.282 364.047 143.749 364.292C143.215 364.537 142.629 364.66 141.989 364.66H141.733C140.538 364.66 139.589 364.308 138.885 363.604C138.181 362.889 137.829 361.903 137.829 360.644V360.18C137.829 359.348 137.994 358.633 138.325 358.036C138.666 357.428 139.13 356.964 139.717 356.644C140.303 356.324 140.975 356.164 141.733 356.164H141.989C142.618 356.164 143.199 356.303 143.733 356.58C144.277 356.847 144.709 357.241 145.029 357.764C145.359 358.276 145.525 358.884 145.525 359.588H143.205C143.205 359.033 143.082 358.591 142.837 358.26C142.591 357.929 142.229 357.764 141.749 357.764C141.269 357.764 140.89 357.956 140.613 358.34C140.335 358.713 140.197 359.188 140.197 359.764V361.188ZM151.867 359.124C151.867 358.793 151.776 358.511 151.595 358.276C151.413 358.031 151.125 357.908 150.731 357.908C150.357 357.908 150.069 358.057 149.867 358.356C149.675 358.644 149.579 359.007 149.579 359.444V364.5H147.275V356.324H149.003L149.291 357.524C149.333 357.407 149.44 357.241 149.611 357.028C149.792 356.815 150.048 356.617 150.379 356.436C150.72 356.255 151.12 356.164 151.579 356.164C152.315 356.164 152.88 356.393 153.275 356.852C153.68 357.311 153.883 357.919 153.883 358.676C153.883 358.836 153.872 358.996 153.851 359.156C153.84 359.316 153.829 359.428 153.819 359.492H151.867V359.124ZM155.087 352.98H157.455V354.82H155.087V352.98ZM155.103 364.5V356.324H157.439V364.5H155.103ZM161.892 357.268C162.127 356.959 162.436 356.697 162.82 356.484C163.215 356.271 163.668 356.164 164.18 356.164C164.777 356.164 165.311 356.319 165.78 356.628C166.26 356.937 166.639 357.401 166.916 358.02C167.193 358.639 167.332 359.391 167.332 360.276V360.452C167.332 361.38 167.183 362.159 166.884 362.788C166.585 363.417 166.18 363.887 165.668 364.196C165.156 364.505 164.58 364.66 163.94 364.66C163.353 364.66 162.831 364.543 162.372 364.308C161.913 364.063 161.529 363.711 161.22 363.252L160.948 363.668C160.841 363.849 160.74 364.009 160.644 364.148C160.548 364.276 160.468 364.393 160.404 364.5H159.556V352.98H161.892V357.268ZM164.964 359.796C164.964 359.167 164.82 358.687 164.532 358.356C164.244 358.025 163.876 357.86 163.428 357.86C162.98 357.86 162.612 358.025 162.324 358.356C162.036 358.687 161.892 359.167 161.892 359.796V361.124C161.892 361.743 162.036 362.223 162.324 362.564C162.612 362.895 162.98 363.06 163.428 363.06C163.876 363.06 164.244 362.895 164.532 362.564C164.82 362.223 164.964 361.743 164.964 361.124V359.796ZM176.656 361.444C176.656 362.159 176.485 362.761 176.144 363.252C175.802 363.732 175.349 364.089 174.784 364.324C174.229 364.548 173.621 364.66 172.96 364.66H172.704C171.946 364.66 171.264 364.5 170.656 364.18C170.048 363.86 169.568 363.401 169.216 362.804C168.874 362.196 168.704 361.476 168.704 360.644V360.18C168.704 359.359 168.88 358.644 169.232 358.036C169.584 357.428 170.058 356.964 170.656 356.644C171.264 356.324 171.946 356.164 172.704 356.164H172.96C173.621 356.164 174.234 356.303 174.8 356.58C175.365 356.847 175.818 357.241 176.16 357.764C176.501 358.276 176.672 358.884 176.672 359.588V360.804H171.072V361.188C171.072 361.721 171.226 362.169 171.536 362.532C171.856 362.884 172.288 363.06 172.832 363.06C173.322 363.06 173.706 362.927 173.984 362.66C174.272 362.383 174.416 361.977 174.416 361.444H176.656ZM172.72 357.764C172.25 357.764 171.866 357.929 171.568 358.26C171.28 358.591 171.114 359.012 171.072 359.524H174.304C174.304 358.98 174.176 358.553 173.92 358.244C173.674 357.924 173.274 357.764 172.72 357.764ZM183.007 359.124C183.007 358.793 182.917 358.511 182.735 358.276C182.554 358.031 182.266 357.908 181.871 357.908C181.498 357.908 181.21 358.057 181.007 358.356C180.815 358.644 180.719 359.007 180.719 359.444V364.5H178.415V356.324H180.143L180.431 357.524C180.474 357.407 180.581 357.241 180.751 357.028C180.933 356.815 181.189 356.617 181.519 356.436C181.861 356.255 182.261 356.164 182.719 356.164C183.455 356.164 184.021 356.393 184.415 356.852C184.821 357.311 185.023 357.919 185.023 358.676C185.023 358.836 185.013 358.996 184.991 359.156C184.981 359.316 184.97 359.428 184.959 359.492H183.007V359.124ZM187.716 362.004C187.716 362.377 187.881 362.649 188.212 362.82C188.542 362.98 188.953 363.06 189.444 363.06C189.87 363.06 190.249 362.996 190.58 362.868C190.921 362.74 191.092 362.537 191.092 362.26C191.092 361.961 190.937 361.748 190.628 361.62C190.318 361.492 189.838 361.38 189.188 361.284C188.505 361.167 187.945 361.039 187.508 360.9C187.07 360.761 186.692 360.521 186.372 360.18C186.062 359.839 185.908 359.364 185.908 358.756C185.908 358.201 186.068 357.732 186.388 357.348C186.718 356.953 187.15 356.66 187.684 356.468C188.228 356.265 188.82 356.164 189.46 356.164H189.78C190.345 356.164 190.878 356.26 191.38 356.452C191.892 356.633 192.302 356.895 192.612 357.236C192.921 357.567 193.076 357.945 193.076 358.372C193.076 358.457 193.07 358.537 193.06 358.612C193.049 358.676 193.044 358.713 193.044 358.724H190.996C190.996 358.084 190.505 357.764 189.524 357.764C189.076 357.764 188.713 357.828 188.436 357.956C188.169 358.084 188.036 358.26 188.036 358.484C188.036 358.751 188.18 358.937 188.468 359.044C188.766 359.151 189.23 359.252 189.86 359.348C190.574 359.465 191.15 359.593 191.588 359.732C192.036 359.86 192.425 360.1 192.756 360.452C193.086 360.793 193.252 361.279 193.252 361.908C193.252 362.879 192.91 363.583 192.228 364.02C191.545 364.447 190.676 364.66 189.62 364.66H189.092C188.43 364.66 187.838 364.559 187.316 364.356C186.793 364.153 186.382 363.865 186.084 363.492C185.796 363.119 185.652 362.692 185.652 362.212L185.668 361.892H187.716V362.004Z" fill="#060C3C"/>
<path d="M72.56 413.26H78.68V416.44H72.56V422.5H69.41V416.44H63.32V413.26H69.41V407.17H72.56V413.26ZM90.0383 409.66C90.5183 408.94 90.9683 408.06 91.3883 407.02C91.8283 405.98 92.1683 405.02 92.4083 404.14H94.3283V414.16H97.0883V417.7H94.3283V422.5H90.0383V417.7H80.9783V414.13C81.9983 412.51 83.0383 410.5 84.0983 408.1C85.1783 405.68 85.9883 403.52 86.5283 401.62H90.7583C90.4583 402.98 89.9183 404.5 89.1383 406.18C88.3583 407.84 87.5183 409.4 86.6183 410.86C85.7383 412.32 84.9783 413.42 84.3383 414.16H90.0383V409.66ZM100.097 421.6C100.097 420.28 100.317 419.24 100.757 418.48C101.217 417.7 101.857 416.99 102.677 416.35L108.527 411.76C109.287 411.18 109.807 410.59 110.087 409.99C110.387 409.37 110.537 408.73 110.537 408.07C110.537 407.33 110.297 406.69 109.817 406.15C109.337 405.59 108.617 405.31 107.657 405.31C106.877 405.31 106.227 405.49 105.707 405.85C105.207 406.19 104.837 406.6 104.597 407.08C104.357 407.56 104.237 407.98 104.237 408.34C104.237 408.7 104.247 408.97 104.267 409.15H100.157C100.137 408.99 100.127 408.8 100.127 408.58C100.127 407.5 100.367 406.44 100.847 405.4C101.327 404.34 102.147 403.45 103.307 402.73C104.467 401.99 105.987 401.62 107.867 401.62H108.317C109.757 401.62 110.987 401.92 112.007 402.52C113.047 403.12 113.827 403.91 114.347 404.89C114.867 405.85 115.127 406.88 115.127 407.98C115.127 409.16 114.897 410.21 114.437 411.13C113.997 412.03 113.227 412.94 112.127 413.86C110.867 414.92 109.347 416.12 107.567 417.46C107.367 417.62 107.117 417.84 106.817 418.12C106.517 418.4 106.367 418.58 106.367 418.66H115.187V422.5H100.097V421.6ZM133.527 415.6C133.527 416.94 133.207 418.16 132.567 419.26C131.927 420.36 131.057 421.23 129.957 421.87C128.857 422.49 127.647 422.8 126.327 422.8H125.457C124.137 422.8 122.927 422.49 121.827 421.87C120.727 421.23 119.857 420.36 119.217 419.26C118.597 418.16 118.287 416.94 118.287 415.6V408.85C118.287 407.51 118.597 406.29 119.217 405.19C119.857 404.09 120.727 403.22 121.827 402.58C122.927 401.94 124.137 401.62 125.457 401.62H126.327C127.647 401.62 128.857 401.94 129.957 402.58C131.057 403.22 131.927 404.09 132.567 405.19C133.207 406.29 133.527 407.51 133.527 408.85V415.6ZM129.087 408.34C129.087 407.44 128.777 406.68 128.157 406.06C127.557 405.44 126.807 405.13 125.907 405.13C125.007 405.13 124.247 405.44 123.627 406.06C123.027 406.68 122.727 407.44 122.727 408.34V416.08C122.727 416.98 123.027 417.74 123.627 418.36C124.247 418.98 125.007 419.29 125.907 419.29C126.807 419.29 127.557 418.98 128.157 418.36C128.777 417.74 129.087 416.98 129.087 416.08V408.34ZM137.496 418.87H142.476V407.08H137.466V404.41C138.586 404.33 139.856 404.05 141.276 403.57C142.696 403.07 144.036 402.47 145.296 401.77H146.886V418.87H151.776V422.5H137.496V418.87Z" fill="#060C3C"/>
<g filter="url(#filter2_d_201_8017)">
<g filter="url(#filter3_d_201_8017)">
<rect x="458.912" y="328.484" width="76" height="76" rx="6" fill="white"/>
</g>
<path d="M553.18 339.889L506.1 384.485L489.814 356.162L436.256 393.536M553.18 339.889L535.592 339.895M553.18 339.889L551.733 357.179" stroke="#FFD43D" stroke-width="3" stroke-linecap="round" stroke-linejoin="round"/>
</g>
<g filter="url(#filter4_d_201_8017)">
<rect x="38" y="116" width="186" height="180" rx="6" fill="white"/>
</g>
<path d="M104.782 255.323C104.38 254.892 103.62 254.892 103.218 255.323L99.2255 259.586C98.6938 260.154 99.162 261 100.008 261L107.992 261C108.838 261 109.306 260.154 108.774 259.586L104.782 255.323Z" fill="#38E7B2"/>
<path d="M123.278 261.754H125.798V263H119.386V261.754H121.906V255.23H119.358V254.334C120.469 254.222 121.598 253.909 122.746 253.396H123.278V261.754ZM130.911 253.256C131.826 253.256 132.559 253.499 133.109 253.984C133.669 254.469 133.949 255.118 133.949 255.93C133.949 256.434 133.842 256.845 133.627 257.162C133.422 257.479 133.095 257.773 132.647 258.044V258.1C133.179 258.343 133.581 258.641 133.851 258.996C134.131 259.351 134.271 259.822 134.271 260.41C134.271 261.269 133.977 261.941 133.389 262.426C132.811 262.902 131.985 263.14 130.911 263.14C129.885 263.14 129.068 262.902 128.461 262.426C127.855 261.941 127.551 261.269 127.551 260.41C127.551 259.822 127.691 259.346 127.971 258.982C128.251 258.609 128.653 258.315 129.175 258.1V258.044C128.662 257.727 128.317 257.414 128.139 257.106C127.962 256.798 127.873 256.434 127.873 256.014C127.873 255.118 128.153 254.437 128.713 253.97C129.273 253.494 130.006 253.256 130.911 253.256ZM130.911 254.502C130.407 254.502 130.001 254.642 129.693 254.922C129.395 255.202 129.245 255.557 129.245 255.986C129.245 256.415 129.395 256.77 129.693 257.05C130.001 257.33 130.407 257.47 130.911 257.47C131.415 257.47 131.817 257.33 132.115 257.05C132.423 256.77 132.577 256.415 132.577 255.986C132.577 255.557 132.423 255.202 132.115 254.922C131.817 254.642 131.415 254.502 130.911 254.502ZM130.911 258.716C129.997 258.716 129.385 259.015 129.077 259.612C128.975 259.836 128.923 260.069 128.923 260.312C128.923 260.835 129.11 261.231 129.483 261.502C129.857 261.763 130.333 261.894 130.911 261.894C131.499 261.894 131.975 261.759 132.339 261.488C132.713 261.208 132.899 260.816 132.899 260.312C132.899 259.817 132.717 259.43 132.353 259.15C131.999 258.861 131.518 258.716 130.911 258.716ZM137.607 261.446V262.636L137.117 264.736H136.389L136.767 263H136.193V261.446H137.607ZM142.987 253.256C143.659 253.256 144.228 253.391 144.695 253.662C145.161 253.933 145.511 254.283 145.745 254.712C145.978 255.141 146.095 255.594 146.095 256.07C146.095 256.742 145.959 257.293 145.689 257.722C145.418 258.151 144.984 258.595 144.387 259.052L141.713 261.096C141.498 261.245 141.33 261.381 141.209 261.502C141.097 261.614 141.041 261.698 141.041 261.754H146.137V263H139.543V262.664C139.543 262.188 139.655 261.735 139.879 261.306C140.112 260.867 140.434 260.494 140.845 260.186L143.631 258.086C144.023 257.769 144.303 257.456 144.471 257.148C144.639 256.84 144.723 256.499 144.723 256.126C144.723 255.846 144.653 255.585 144.513 255.342C144.373 255.09 144.167 254.889 143.897 254.74C143.626 254.581 143.299 254.502 142.917 254.502C142.525 254.502 142.175 254.586 141.867 254.754C141.568 254.922 141.335 255.146 141.167 255.426C140.999 255.706 140.915 256.014 140.915 256.35V256.546C140.915 256.621 140.919 256.677 140.929 256.714H139.557L139.543 256.574V256.462C139.543 255.921 139.664 255.407 139.907 254.922C140.149 254.427 140.527 254.026 141.041 253.718C141.554 253.41 142.203 253.256 142.987 253.256ZM152.454 261.754H154.974V263H148.562V261.754H151.082V255.23H148.534V254.334C149.644 254.222 150.774 253.909 151.922 253.396H152.454V261.754ZM164.091 253.396L158.267 263H157.287L163.139 253.396H164.091ZM158.001 253.41C158.496 253.41 158.902 253.573 159.219 253.9C159.536 254.217 159.695 254.619 159.695 255.104V256.602C159.695 257.087 159.532 257.493 159.205 257.82C158.888 258.137 158.486 258.296 158.001 258.296H157.903C157.418 258.296 157.012 258.137 156.685 257.82C156.368 257.493 156.209 257.087 156.209 256.602V255.104C156.209 254.619 156.368 254.217 156.685 253.9C157.002 253.573 157.408 253.41 157.903 253.41H158.001ZM157.959 254.18C157.698 254.18 157.488 254.259 157.329 254.418C157.18 254.567 157.105 254.763 157.105 255.006V256.7C157.105 256.943 157.18 257.143 157.329 257.302C157.488 257.451 157.698 257.526 157.959 257.526C158.22 257.526 158.426 257.451 158.575 257.302C158.724 257.143 158.799 256.943 158.799 256.7V255.006C158.799 254.763 158.724 254.567 158.575 254.418C158.426 254.259 158.22 254.18 157.959 254.18ZM163.461 258.128C163.946 258.128 164.348 258.291 164.665 258.618C164.992 258.935 165.155 259.337 165.155 259.822V261.32C165.155 261.805 164.996 262.211 164.679 262.538C164.362 262.855 163.956 263.014 163.461 263.014H163.363C162.868 263.014 162.462 262.855 162.145 262.538C161.828 262.211 161.669 261.805 161.669 261.32V259.822C161.669 259.337 161.828 258.935 162.145 258.618C162.472 258.291 162.878 258.128 163.363 258.128H163.461ZM163.419 258.898C163.158 258.898 162.948 258.977 162.789 259.136C162.64 259.285 162.565 259.481 162.565 259.724V261.418C162.565 261.661 162.64 261.861 162.789 262.02C162.948 262.169 163.158 262.244 163.419 262.244C163.68 262.244 163.886 262.169 164.035 262.02C164.184 261.861 164.259 261.661 164.259 261.418V259.724C164.259 259.481 164.184 259.285 164.035 259.136C163.886 258.977 163.68 258.898 163.419 258.898Z" fill="#38E7B2"/>
<path d="M92.1173 213.024L91.9093 214.448H86.4853V217.68H91.3973V219.104H86.4853V222.576H92.0053L92.2293 224H84.9173V213.024H92.1173ZM98.2897 215.664C99.1857 215.664 99.8897 215.904 100.402 216.384C100.914 216.864 101.17 217.568 101.17 218.496V224H99.6657V218.768C99.6657 217.499 99.0897 216.864 97.9377 216.864C97.5537 216.864 97.1964 216.965 96.8657 217.168C96.535 217.371 96.2684 217.648 96.0657 218C95.863 218.341 95.7617 218.72 95.7617 219.136V224H94.2577V215.824H95.3457L95.5537 217.024C96.2364 216.117 97.1484 215.664 98.2897 215.664ZM111.23 214.352C111.23 214.896 111.086 215.355 110.798 215.728C110.51 216.091 110.11 216.325 109.598 216.432L109.566 216.48C110.099 216.949 110.366 217.536 110.366 218.24C110.366 219.008 110.078 219.627 109.502 220.096C108.926 220.565 108.142 220.8 107.15 220.8H106.062C105.742 220.8 105.475 220.885 105.262 221.056C105.049 221.216 104.942 221.424 104.942 221.68C104.942 221.936 105.043 222.139 105.246 222.288C105.449 222.437 105.721 222.512 106.062 222.512H109.15C109.779 222.512 110.281 222.709 110.654 223.104C111.038 223.499 111.23 224 111.23 224.608C111.23 225.333 110.953 225.915 110.398 226.352C109.854 226.789 109.118 227.008 108.19 227.008H104.974C104.611 227.008 104.275 226.912 103.966 226.72C103.667 226.528 103.427 226.283 103.246 225.984C103.075 225.696 102.99 225.397 102.99 225.088C102.99 224.64 103.097 224.251 103.31 223.92C103.534 223.589 103.827 223.344 104.19 223.184C103.699 222.885 103.454 222.443 103.454 221.856C103.454 221.472 103.566 221.141 103.79 220.864C104.014 220.587 104.329 220.379 104.734 220.24C104.019 219.845 103.662 219.179 103.662 218.24C103.662 217.451 103.95 216.827 104.526 216.368C105.113 215.899 105.923 215.664 106.958 215.664H107.022C107.619 215.664 108.163 215.755 108.654 215.936C109.411 215.563 109.843 215.035 109.95 214.352H111.23ZM107.006 216.864C106.441 216.864 105.987 216.976 105.646 217.2C105.315 217.413 105.15 217.76 105.15 218.24C105.15 218.72 105.315 219.067 105.646 219.28C105.987 219.493 106.441 219.6 107.006 219.6C107.571 219.6 108.025 219.493 108.366 219.28C108.707 219.067 108.878 218.72 108.878 218.24C108.878 217.76 108.707 217.413 108.366 217.2C108.025 216.976 107.571 216.864 107.006 216.864ZM105.406 223.952C105.15 223.952 104.931 224.043 104.75 224.224C104.569 224.405 104.478 224.624 104.478 224.88C104.478 225.136 104.569 225.355 104.75 225.536C104.931 225.717 105.15 225.808 105.406 225.808H108.494C108.835 225.808 109.129 225.707 109.374 225.504C109.619 225.312 109.742 225.088 109.742 224.832C109.742 224.565 109.651 224.352 109.47 224.192C109.289 224.032 109.033 223.952 108.702 223.952H105.406ZM116.052 215.664C117.129 215.664 117.929 215.877 118.452 216.304C118.985 216.731 119.252 217.349 119.252 218.16V222.4C119.252 222.592 119.294 222.736 119.38 222.832C119.465 222.917 119.572 222.96 119.7 222.96C119.945 222.96 120.19 222.885 120.436 222.736V223.84C120.073 224.053 119.662 224.16 119.204 224.16C118.745 224.16 118.404 224.032 118.18 223.776C117.956 223.509 117.833 223.147 117.812 222.688C117.15 223.669 116.196 224.16 114.948 224.16C114.052 224.16 113.38 223.968 112.932 223.584C112.494 223.189 112.276 222.571 112.276 221.728C112.276 221.067 112.446 220.549 112.788 220.176C113.129 219.792 113.694 219.515 114.484 219.344C115.273 219.173 116.361 219.088 117.748 219.088V218.336C117.748 217.792 117.588 217.413 117.268 217.2C116.948 216.976 116.484 216.864 115.876 216.864C115.3 216.864 114.852 216.976 114.532 217.2C114.212 217.424 114.052 217.739 114.052 218.144V218.336H112.58C112.558 218.187 112.548 218.011 112.548 217.808C112.548 217.435 112.697 217.083 112.996 216.752C113.294 216.421 113.7 216.16 114.212 215.968C114.724 215.765 115.289 215.664 115.908 215.664H116.052ZM117.748 220.256C116.628 220.256 115.78 220.315 115.204 220.432C114.638 220.539 114.26 220.704 114.068 220.928C113.876 221.152 113.78 221.461 113.78 221.856C113.78 222.592 114.34 222.96 115.46 222.96C115.854 222.96 116.228 222.864 116.58 222.672C116.932 222.469 117.214 222.187 117.428 221.824C117.641 221.461 117.748 221.045 117.748 220.576V220.256ZM129.683 214.352C129.683 214.896 129.539 215.355 129.251 215.728C128.963 216.091 128.563 216.325 128.051 216.432L128.019 216.48C128.553 216.949 128.819 217.536 128.819 218.24C128.819 219.008 128.531 219.627 127.955 220.096C127.379 220.565 126.595 220.8 125.603 220.8H124.515C124.195 220.8 123.929 220.885 123.715 221.056C123.502 221.216 123.395 221.424 123.395 221.68C123.395 221.936 123.497 222.139 123.699 222.288C123.902 222.437 124.174 222.512 124.515 222.512H127.603C128.233 222.512 128.734 222.709 129.107 223.104C129.491 223.499 129.683 224 129.683 224.608C129.683 225.333 129.406 225.915 128.851 226.352C128.307 226.789 127.571 227.008 126.643 227.008H123.427C123.065 227.008 122.729 226.912 122.419 226.72C122.121 226.528 121.881 226.283 121.699 225.984C121.529 225.696 121.443 225.397 121.443 225.088C121.443 224.64 121.55 224.251 121.763 223.92C121.987 223.589 122.281 223.344 122.643 223.184C122.153 222.885 121.907 222.443 121.907 221.856C121.907 221.472 122.019 221.141 122.243 220.864C122.467 220.587 122.782 220.379 123.187 220.24C122.473 219.845 122.115 219.179 122.115 218.24C122.115 217.451 122.403 216.827 122.979 216.368C123.566 215.899 124.377 215.664 125.411 215.664H125.475C126.073 215.664 126.617 215.755 127.107 215.936C127.865 215.563 128.297 215.035 128.403 214.352H129.683ZM125.459 216.864C124.894 216.864 124.441 216.976 124.099 217.2C123.769 217.413 123.603 217.76 123.603 218.24C123.603 218.72 123.769 219.067 124.099 219.28C124.441 219.493 124.894 219.6 125.459 219.6C126.025 219.6 126.478 219.493 126.819 219.28C127.161 219.067 127.331 218.72 127.331 218.24C127.331 217.76 127.161 217.413 126.819 217.2C126.478 216.976 126.025 216.864 125.459 216.864ZM123.859 223.952C123.603 223.952 123.385 224.043 123.203 224.224C123.022 224.405 122.931 224.624 122.931 224.88C122.931 225.136 123.022 225.355 123.203 225.536C123.385 225.717 123.603 225.808 123.859 225.808H126.947C127.289 225.808 127.582 225.707 127.827 225.504C128.073 225.312 128.195 225.088 128.195 224.832C128.195 224.565 128.105 224.352 127.923 224.192C127.742 224.032 127.486 223.952 127.155 223.952H123.859ZM134.569 215.664C135.241 215.664 135.833 215.808 136.345 216.096C136.868 216.373 137.273 216.773 137.561 217.296C137.849 217.819 137.993 218.427 137.993 219.12V220.256H132.281C132.302 221.12 132.505 221.787 132.889 222.256C133.273 222.725 133.844 222.96 134.601 222.96C135.273 222.96 135.769 222.763 136.089 222.368C136.409 221.973 136.569 221.504 136.569 220.96H137.993C137.993 221.6 137.844 222.16 137.545 222.64C137.257 223.12 136.852 223.493 136.329 223.76C135.817 224.027 135.23 224.16 134.569 224.16H134.505C133.353 224.16 132.441 223.792 131.769 223.056C131.108 222.309 130.777 221.317 130.777 220.08V219.76C130.777 218.949 130.926 218.235 131.225 217.616C131.524 216.997 131.95 216.517 132.505 216.176C133.06 215.835 133.71 215.664 134.457 215.664H134.569ZM134.489 216.864C133.881 216.864 133.385 217.051 133.001 217.424C132.628 217.797 132.398 218.352 132.313 219.088H136.505V218.896C136.505 218.288 136.318 217.797 135.945 217.424C135.582 217.051 135.097 216.864 134.489 216.864ZM148.804 215.664C149.646 215.664 150.302 215.909 150.772 216.4C151.241 216.891 151.476 217.589 151.476 218.496V224H149.972V218.768C149.972 217.499 149.481 216.864 148.5 216.864C148.158 216.864 147.838 216.965 147.54 217.168C147.252 217.371 147.017 217.648 146.836 218C146.665 218.341 146.58 218.72 146.58 219.136V224H145.076V218.768C145.076 217.499 144.585 216.864 143.604 216.864C143.262 216.864 142.942 216.965 142.644 217.168C142.356 217.371 142.121 217.648 141.94 218C141.769 218.341 141.684 218.72 141.684 219.136V224H140.18V215.824H141.268L141.476 217.024C142.094 216.117 142.953 215.664 144.052 215.664C145.129 215.664 145.876 216.117 146.292 217.024C146.654 216.512 147.044 216.16 147.46 215.968C147.876 215.765 148.324 215.664 148.804 215.664ZM157.335 215.664C158.007 215.664 158.599 215.808 159.111 216.096C159.633 216.373 160.039 216.773 160.327 217.296C160.615 217.819 160.759 218.427 160.759 219.12V220.256H155.047C155.068 221.12 155.271 221.787 155.655 222.256C156.039 222.725 156.609 222.96 157.367 222.96C158.039 222.96 158.535 222.763 158.855 222.368C159.175 221.973 159.335 221.504 159.335 220.96H160.759C160.759 221.6 160.609 222.16 160.311 222.64C160.023 223.12 159.617 223.493 159.095 223.76C158.583 224.027 157.996 224.16 157.335 224.16H157.271C156.119 224.16 155.207 223.792 154.535 223.056C153.873 222.309 153.543 221.317 153.543 220.08V219.76C153.543 218.949 153.692 218.235 153.991 217.616C154.289 216.997 154.716 216.517 155.271 216.176C155.825 215.835 156.476 215.664 157.223 215.664H157.335ZM157.255 216.864C156.647 216.864 156.151 217.051 155.767 217.424C155.393 217.797 155.164 218.352 155.079 219.088H159.271V218.896C159.271 218.288 159.084 217.797 158.711 217.424C158.348 217.051 157.863 216.864 157.255 216.864ZM166.977 215.664C167.873 215.664 168.577 215.904 169.089 216.384C169.601 216.864 169.857 217.568 169.857 218.496V224H168.353V218.768C168.353 217.499 167.777 216.864 166.625 216.864C166.241 216.864 165.884 216.965 165.553 217.168C165.223 217.371 164.956 217.648 164.753 218C164.551 218.341 164.449 218.72 164.449 219.136V224H162.945V215.824H164.033L164.241 217.024C164.924 216.117 165.836 215.664 166.977 215.664ZM174.111 215.824H176.015V217.024H174.111V221.904C174.111 222.288 174.186 222.565 174.335 222.736C174.485 222.907 174.714 222.992 175.023 222.992C175.301 222.992 175.631 222.912 176.015 222.752V223.872C175.631 224.064 175.135 224.16 174.527 224.16C173.898 224.16 173.418 223.973 173.087 223.6C172.767 223.227 172.607 222.635 172.607 221.824V217.024H171.711V215.824H172.655L173.167 213.216H174.111V215.824Z" fill="#5D6180"/>
<path d="M91.9507 162.984C88.812 167.003 86.26 171.051 84.2947 175.128C82.3293 179.205 81.3467 183.356 81.3467 187.58C81.3467 188.841 81.3613 189.648 81.3907 190H73.9987C73.9987 185.747 74.9813 181.581 76.9467 177.504C78.912 173.427 81.4053 169.452 84.4267 165.58H70.1267V159.816H91.9507V162.984ZM107.672 164.656C106.381 164.656 105.267 165.096 104.328 165.976C103.389 166.856 102.92 167.941 102.92 169.232V173.5C103.712 172.649 104.651 172.004 105.736 171.564C106.821 171.124 107.936 170.904 109.08 170.904C110.899 170.904 112.541 171.285 114.008 172.048C115.504 172.781 116.677 173.852 117.528 175.26C118.408 176.639 118.848 178.252 118.848 180.1C118.848 182.183 118.364 184.001 117.396 185.556C116.457 187.111 115.152 188.313 113.48 189.164C111.837 190.015 110.004 190.44 107.98 190.44H107.364C105.369 190.44 103.536 190 101.864 189.12C100.192 188.211 98.8721 186.949 97.9041 185.336C96.9361 183.723 96.4521 181.889 96.4521 179.836V169.98C96.4521 168.015 96.9361 166.225 97.9041 164.612C98.8721 162.999 100.177 161.723 101.82 160.784C103.463 159.845 105.267 159.376 107.232 159.376H107.848C109.784 159.376 111.544 159.772 113.128 160.564C114.712 161.356 115.959 162.515 116.868 164.04C117.777 165.536 118.232 167.311 118.232 169.364H112.16C112.16 168.073 111.735 166.973 110.884 166.064C110.063 165.125 108.992 164.656 107.672 164.656ZM112.468 179.968C112.468 178.648 111.999 177.563 111.06 176.712C110.151 175.832 109.007 175.392 107.628 175.392C106.308 175.392 105.193 175.832 104.284 176.712C103.375 177.563 102.92 178.648 102.92 179.968V180.848C102.92 182.168 103.375 183.268 104.284 184.148C105.223 184.999 106.381 185.424 107.76 185.424C109.08 185.424 110.195 184.999 111.104 184.148C112.013 183.268 112.468 182.168 112.468 180.848V179.968ZM123.965 183.532H130.389V190H123.965V183.532ZM153.197 174.688C154.781 175.509 155.969 176.463 156.761 177.548C157.582 178.604 157.993 180.012 157.993 181.772C157.993 184.529 156.995 186.671 155.001 188.196C153.006 189.692 150.263 190.44 146.773 190.44C143.399 190.44 140.686 189.677 138.633 188.152C136.579 186.627 135.553 184.5 135.553 181.772C135.553 180.012 135.949 178.589 136.741 177.504C137.562 176.419 138.765 175.48 140.349 174.688V174.512C139.087 173.661 138.134 172.767 137.489 171.828C136.873 170.889 136.565 169.613 136.565 168C136.565 166.211 137.005 164.671 137.885 163.38C138.765 162.06 139.967 161.063 141.493 160.388C143.047 159.713 144.807 159.376 146.773 159.376C148.738 159.376 150.483 159.713 152.009 160.388C153.563 161.063 154.781 162.06 155.661 163.38C156.541 164.671 156.981 166.211 156.981 168C156.981 169.613 156.658 170.889 156.013 171.828C155.397 172.767 154.458 173.661 153.197 174.512V174.688ZM142.593 168.572C142.593 169.657 142.989 170.581 143.781 171.344C144.573 172.077 145.57 172.444 146.773 172.444C147.975 172.444 148.973 172.077 149.765 171.344C150.557 170.581 150.953 169.657 150.953 168.572V168.088C150.953 167.003 150.557 166.093 149.765 165.36C148.973 164.597 147.975 164.216 146.773 164.216C145.57 164.216 144.573 164.597 143.781 165.36C142.989 166.093 142.593 167.003 142.593 168.088V168.572ZM142.109 181.552C142.109 182.784 142.549 183.767 143.429 184.5C144.309 185.233 145.423 185.6 146.773 185.6C148.122 185.6 149.237 185.233 150.117 184.5C150.997 183.767 151.437 182.784 151.437 181.552V180.848C151.437 179.616 150.997 178.633 150.117 177.9C149.237 177.167 148.122 176.8 146.773 176.8C145.423 176.8 144.309 177.167 143.429 177.9C142.549 178.633 142.109 179.616 142.109 180.848V181.552ZM169.138 190H165.486L183.922 159.816H187.442L169.138 190ZM173.582 169.848C173.582 171.344 173.069 172.62 172.042 173.676C171.015 174.703 169.739 175.216 168.214 175.216H167.554C166.029 175.216 164.753 174.703 163.726 173.676C162.699 172.62 162.186 171.344 162.186 169.848V165.228C162.186 163.732 162.699 162.471 163.726 161.444C164.753 160.388 166.029 159.86 167.554 159.86H168.214C169.739 159.86 171.015 160.388 172.042 161.444C173.069 162.471 173.582 163.732 173.582 165.228V169.848ZM170.018 164.788C170.018 164.172 169.813 163.659 169.402 163.248C169.021 162.837 168.522 162.632 167.906 162.632C167.29 162.632 166.777 162.837 166.366 163.248C165.955 163.659 165.75 164.172 165.75 164.788V170.244C165.75 170.86 165.941 171.373 166.322 171.784C166.733 172.195 167.261 172.4 167.906 172.4C168.522 172.4 169.021 172.195 169.402 171.784C169.813 171.373 170.018 170.86 170.018 170.244V164.788ZM190.742 184.676C190.742 186.172 190.229 187.448 189.202 188.504C188.175 189.531 186.899 190.044 185.374 190.044H184.714C183.189 190.044 181.913 189.531 180.886 188.504C179.859 187.448 179.346 186.172 179.346 184.676V180.056C179.346 178.56 179.859 177.299 180.886 176.272C181.913 175.216 183.189 174.688 184.714 174.688H185.374C186.899 174.688 188.175 175.216 189.202 176.272C190.229 177.299 190.742 178.56 190.742 180.056V184.676ZM187.178 179.66C187.178 179.044 186.973 178.531 186.562 178.12C186.181 177.68 185.682 177.46 185.066 177.46C184.45 177.46 183.937 177.68 183.526 178.12C183.115 178.531 182.91 179.044 182.91 179.66V185.116C182.91 185.732 183.115 186.245 183.526 186.656C183.937 187.067 184.45 187.272 185.066 187.272C185.682 187.272 186.181 187.067 186.562 186.656C186.973 186.245 187.178 185.732 187.178 185.116V179.66Z" fill="#060C3C"/>
<g filter="url(#filter5_d_201_8017)">
<rect x="77" y="30.5" width="110" height="54" rx="6" fill="white"/>
</g>
<path d="M122.284 54.7757L116.333 53.9109L113.673 48.5179C113.6 48.3702 113.48 48.2507 113.333 48.1781C112.962 47.9952 112.512 48.1476 112.327 48.5179L109.667 53.9109L103.716 54.7757C103.552 54.7992 103.402 54.8765 103.287 54.9937C103.149 55.1364 103.072 55.3284 103.075 55.5275C103.077 55.7265 103.159 55.9164 103.302 56.0554L107.607 60.2531L106.59 66.1804C106.566 66.3183 106.581 66.4601 106.634 66.5897C106.687 66.7194 106.774 66.8317 106.888 66.9139C107.001 66.9962 107.135 67.045 107.274 67.055C107.414 67.0649 107.554 67.0356 107.677 66.9702L113 64.1718L118.323 66.9702C118.468 67.0476 118.637 67.0734 118.798 67.0452C119.206 66.9749 119.48 66.5882 119.41 66.1804L118.393 60.2531L122.698 56.0554C122.816 55.9406 122.893 55.7906 122.916 55.6265C122.98 55.2163 122.694 54.8367 122.284 54.7757Z" fill="#FFD43D"/>
<path d="M136.37 56.084C136.722 55.556 137.052 54.9107 137.36 54.148C137.683 53.3853 137.932 52.6813 138.108 52.036H139.516V59.384H141.54V61.98H139.516V65.5H136.37V61.98H129.726V59.362C130.474 58.174 131.237 56.7 132.014 54.94C132.806 53.1653 133.4 51.5813 133.796 50.188H136.898C136.678 51.1853 136.282 52.3 135.71 53.532C135.138 54.7493 134.522 55.8933 133.862 56.964C133.217 58.0347 132.659 58.8413 132.19 59.384H136.37V56.084ZM144.583 68.668C144.729 67.964 144.964 66.908 145.287 65.5H143.901V62.266H147.113V64.972L146.189 68.668H144.583ZM158.516 57.844C159.308 58.2547 159.902 58.7313 160.298 59.274C160.709 59.802 160.914 60.506 160.914 61.386C160.914 62.7647 160.416 63.8353 159.418 64.598C158.421 65.346 157.05 65.72 155.304 65.72C153.618 65.72 152.261 65.3387 151.234 64.576C150.208 63.8133 149.694 62.75 149.694 61.386C149.694 60.506 149.892 59.7947 150.288 59.252C150.699 58.7093 151.3 58.24 152.092 57.844V57.756C151.462 57.3307 150.985 56.8833 150.662 56.414C150.354 55.9447 150.2 55.3067 150.2 54.5C150.2 53.6053 150.42 52.8353 150.86 52.19C151.3 51.53 151.902 51.0313 152.664 50.694C153.442 50.3567 154.322 50.188 155.304 50.188C156.287 50.188 157.16 50.3567 157.922 50.694C158.7 51.0313 159.308 51.53 159.748 52.19C160.188 52.8353 160.408 53.6053 160.408 54.5C160.408 55.3067 160.247 55.9447 159.924 56.414C159.616 56.8833 159.147 57.3307 158.516 57.756V57.844ZM153.214 54.786C153.214 55.3287 153.412 55.7907 153.808 56.172C154.204 56.5387 154.703 56.722 155.304 56.722C155.906 56.722 156.404 56.5387 156.8 56.172C157.196 55.7907 157.394 55.3287 157.394 54.786V54.544C157.394 54.0013 157.196 53.5467 156.8 53.18C156.404 52.7987 155.906 52.608 155.304 52.608C154.703 52.608 154.204 52.7987 153.808 53.18C153.412 53.5467 153.214 54.0013 153.214 54.544V54.786ZM152.972 61.276C152.972 61.892 153.192 62.3833 153.632 62.75C154.072 63.1167 154.63 63.3 155.304 63.3C155.979 63.3 156.536 63.1167 156.976 62.75C157.416 62.3833 157.636 61.892 157.636 61.276V60.924C157.636 60.308 157.416 59.8167 156.976 59.45C156.536 59.0833 155.979 58.9 155.304 58.9C154.63 58.9 154.072 59.0833 153.632 59.45C153.192 59.8167 152.972 60.308 152.972 60.924V61.276Z" fill="#FFD43D"/>
<defs>
<filter id="filter0_d_201_8017" x="218" y="46.5" width="333" height="296" filterUnits="userSpaceOnUse" color-interpolation-filters="sRGB">
<feFlood flood-opacity="0" result="BackgroundImageFix"/>
<feColorMatrix in="SourceAlpha" type="matrix" values="0 0 0 0 0 0 0 0 0 0 0 0 0 0 0 0 0 0 127 0" result="hardAlpha"/>
<feMorphology radius="2" operator="erode" in="SourceAlpha" result="effect1_dropShadow_201_8017"/>
<feOffset dy="8"/>
<feGaussianBlur stdDeviation="20"/>
<feColorMatrix type="matrix" values="0 0 0 0 0.0235294 0 0 0 0 0.0470588 0 0 0 0 0.231373 0 0 0 0.08 0"/>
<feBlend mode="normal" in2="BackgroundImageFix" result="effect1_dropShadow_201_8017"/>
<feBlend mode="normal" in="SourceGraphic" in2="effect1_dropShadow_201_8017" result="shape"/>
</filter>
<filter id="filter1_d_201_8017" x="0" y="298.5" width="464" height="226" filterUnits="userSpaceOnUse" color-interpolation-filters="sRGB">
<feFlood flood-opacity="0" result="BackgroundImageFix"/>
<feColorMatrix in="SourceAlpha" type="matrix" values="0 0 0 0 0 0 0 0 0 0 0 0 0 0 0 0 0 0 127 0" result="hardAlpha"/>
<feMorphology radius="2" operator="erode" in="SourceAlpha" result="effect1_dropShadow_201_8017"/>
<feOffset dy="8"/>
<feGaussianBlur stdDeviation="20"/>
<feColorMatrix type="matrix" values="0 0 0 0 0.0235294 0 0 0 0 0.0470588 0 0 0 0 0.231373 0 0 0 0.08 0"/>
<feBlend mode="normal" in2="BackgroundImageFix" result="effect1_dropShadow_201_8017"/>
<feBlend mode="normal" in="SourceGraphic" in2="effect1_dropShadow_201_8017" result="shape"/>
</filter>
<filter id="filter2_d_201_8017" x="414.756" y="307.5" width="162.244" height="128.651" filterUnits="userSpaceOnUse" color-interpolation-filters="sRGB">
<feFlood flood-opacity="0" result="BackgroundImageFix"/>
<feColorMatrix in="SourceAlpha" type="matrix" values="0 0 0 0 0 0 0 0 0 0 0 0 0 0 0 0 0 0 127 0" result="hardAlpha"/>
<feOffset dy="6"/>
<feGaussianBlur stdDeviation="10"/>
<feColorMatrix type="matrix" values="0 0 0 0 0.11 0 0 0 0 0.14137 0 0 0 0 0.4125 0 0 0 0.05 0"/>
<feBlend mode="normal" in2="BackgroundImageFix" result="effect1_dropShadow_201_8017"/>
<feBlend mode="normal" in="SourceGraphic" in2="effect1_dropShadow_201_8017" result="shape"/>
</filter>
<filter id="filter3_d_201_8017" x="420.912" y="298.484" width="152" height="152" filterUnits="userSpaceOnUse" color-interpolation-filters="sRGB">
<feFlood flood-opacity="0" result="BackgroundImageFix"/>
<feColorMatrix in="SourceAlpha" type="matrix" values="0 0 0 0 0 0 0 0 0 0 0 0 0 0 0 0 0 0 127 0" result="hardAlpha"/>
<feMorphology radius="2" operator="erode" in="SourceAlpha" result="effect1_dropShadow_201_8017"/>
<feOffset dy="8"/>
<feGaussianBlur stdDeviation="20"/>
<feColorMatrix type="matrix" values="0 0 0 0 0.0235294 0 0 0 0 0.0470588 0 0 0 0 0.231373 0 0 0 0.08 0"/>
<feBlend mode="normal" in2="BackgroundImageFix" result="effect1_dropShadow_201_8017"/>
<feBlend mode="normal" in="SourceGraphic" in2="effect1_dropShadow_201_8017" result="shape"/>
</filter>
<filter id="filter4_d_201_8017" x="0" y="86" width="262" height="256" filterUnits="userSpaceOnUse" color-interpolation-filters="sRGB">
<feFlood flood-opacity="0" result="BackgroundImageFix"/>
<feColorMatrix in="SourceAlpha" type="matrix" values="0 0 0 0 0 0 0 0 0 0 0 0 0 0 0 0 0 0 127 0" result="hardAlpha"/>
<feMorphology radius="2" operator="erode" in="SourceAlpha" result="effect1_dropShadow_201_8017"/>
<feOffset dy="8"/>
<feGaussianBlur stdDeviation="20"/>
<feColorMatrix type="matrix" values="0 0 0 0 0.0235294 0 0 0 0 0.0470588 0 0 0 0 0.231373 0 0 0 0.08 0"/>
<feBlend mode="normal" in2="BackgroundImageFix" result="effect1_dropShadow_201_8017"/>
<feBlend mode="normal" in="SourceGraphic" in2="effect1_dropShadow_201_8017" result="shape"/>
</filter>
<filter id="filter5_d_201_8017" x="39" y="0.5" width="186" height="130" filterUnits="userSpaceOnUse" color-interpolation-filters="sRGB">
<feFlood flood-opacity="0" result="BackgroundImageFix"/>
<feColorMatrix in="SourceAlpha" type="matrix" values="0 0 0 0 0 0 0 0 0 0 0 0 0 0 0 0 0 0 127 0" result="hardAlpha"/>
<feMorphology radius="2" operator="erode" in="SourceAlpha" result="effect1_dropShadow_201_8017"/>
<feOffset dy="8"/>
<feGaussianBlur stdDeviation="20"/>
<feColorMatrix type="matrix" values="0 0 0 0 0.0235294 0 0 0 0 0.0470588 0 0 0 0 0.231373 0 0 0 0.08 0"/>
<feBlend mode="normal" in2="BackgroundImageFix" result="effect1_dropShadow_201_8017"/>
<feBlend mode="normal" in="SourceGraphic" in2="effect1_dropShadow_201_8017" result="shape"/>
</filter>
</defs>
</svg>
