<svg width="403" height="461" viewBox="0 0 403 461" fill="none" xmlns="http://www.w3.org/2000/svg">
<path d="M7.62939e-06 143L1.37867e-06 0L143 -6.25073e-06L143 143L7.62939e-06 143Z" fill="#F4F1FF"/>
<path d="M224.529 460.571L224.529 282.1L403 282.1L403 460.571L224.529 460.571Z" fill="#F4F1FF"/>
<path d="M7.62939e-06 345.429L4.60956e-06 276.343L69.0857 276.343L69.0857 345.429L7.62939e-06 345.429Z" fill="#F4F1FF"/>
<path d="M69.0857 460.571L69.0857 345.429L184.229 345.429L184.229 460.571L69.0857 460.571Z" fill="#F4F1FF"/>
<path d="M126.657 276.343L126.657 218.771L184.229 218.771L184.229 276.343L126.657 276.343Z" fill="#F4F1FF"/>
<rect width="27.6343" height="27.6343" transform="matrix(-1 0 0 1 303.977 171.563)" fill="#F4F1FF"/>
<rect x="345" width="57.5714" height="57.5714" fill="#F4F1FF"/>
<rect x="345.429" y="199.197" width="57.5714" height="57.5714" fill="#F4F1FF"/>
<rect x="276.343" y="57.5714" width="69.0857" height="69.0857" fill="#F4F1FF"/>
</svg>
