<svg width="20" height="20" viewBox="0 0 20 20" fill="none" xmlns="http://www.w3.org/2000/svg">
<g clip-path="url(#clip0_2211_3475)">
<path d="M7.36914 10.5426C6.20914 10.5426 5.26831 11.4834 5.26831 12.6434V17.8984C5.26831 19.0584 6.20914 19.9993 7.36914 19.9993C8.52914 19.9993 9.46997 19.0584 9.46997 17.8984V12.6434C9.46914 11.4834 8.52831 10.5426 7.36914 10.5426Z" fill="#B4B6C4"/>
<path d="M0.0158691 12.6434C0.0158691 13.8042 0.957536 14.7459 2.11837 14.7459C3.2792 14.7459 4.22087 13.8042 4.22087 12.6434V10.5409H2.12004C2.1192 10.5409 2.1192 10.5409 2.11837 10.5409C0.957536 10.5409 0.0158691 11.4826 0.0158691 12.6434Z" fill="#B4B6C4"/>
<path d="M7.37172 -0.000854492C7.37089 -0.000854492 7.37005 -0.000854492 7.36922 -0.000854492C6.20839 -0.000854492 5.26672 0.940812 5.26672 2.10165C5.26672 3.26248 6.20839 4.20415 7.36922 4.20415H9.47005V2.10165C9.47005 2.10081 9.47005 2.09915 9.47005 2.09748C9.46922 0.938312 8.53005 -0.000854492 7.37172 -0.000854492Z" fill="#B4B6C4"/>
<path d="M2.10421 9.47501H7.36921C8.53004 9.47501 9.47171 8.53335 9.47171 7.37252C9.47171 6.21169 8.53004 5.27002 7.36921 5.27002H2.10421C0.943376 5.27002 0.00170898 6.21169 0.00170898 7.37252C0.00170898 8.53335 0.943376 9.47501 2.10421 9.47501Z" fill="#B4B6C4"/>
<path d="M17.8809 5.26917C16.7217 5.26917 15.7825 6.20833 15.7825 7.3675V7.37166V9.47416H17.8834C19.0442 9.47416 19.9859 8.5325 19.9859 7.37166C19.9859 6.21083 19.0442 5.26917 17.8834 5.26917C17.8825 5.26917 17.8817 5.26917 17.8809 5.26917Z" fill="#B4B6C4"/>
<path d="M10.5341 2.10181V7.37264C10.5341 8.53264 11.475 9.47348 12.635 9.47348C13.795 9.47348 14.7358 8.53264 14.7358 7.37264V2.10181C14.7358 0.94181 13.795 0.000976562 12.635 0.000976562C11.475 0.000976562 10.5341 0.94181 10.5341 2.10181Z" fill="#B4B6C4"/>
<path d="M14.735 17.8967C14.735 16.7367 13.7942 15.7959 12.6342 15.7959H10.5333V17.8984C10.5342 19.0576 11.4742 19.9976 12.6342 19.9976C13.7942 19.9976 14.735 19.0567 14.735 17.8967Z" fill="#B4B6C4"/>
<path d="M17.8992 10.5409H12.6342C11.4733 10.5409 10.5317 11.4826 10.5317 12.6434C10.5317 13.8042 11.4733 14.7459 12.6342 14.7459H17.8992C19.06 14.7459 20.0017 13.8042 20.0017 12.6434C20.0017 11.4826 19.06 10.5409 17.8992 10.5409Z" fill="#B4B6C4"/>
</g>
<defs>
<clipPath id="clip0_2211_3475">
<rect width="20" height="20" fill="white"/>
</clipPath>
</defs>
</svg>
